<svg width="2967" height="1766" viewBox="0 0 2967 1766" fill="none" xmlns="http://www.w3.org/2000/svg">
<g clip-path="url(#clip0)">
<path d="M146.699 1675.2C-133.401 1207.6 230.799 1127 192.899 955.6C139.499 714.4 266.799 444.9 372.399 376.7C599.399 230.1 785.599 376.7 971.399 245.8C1212 76.2 1416 -76.3 1688.7 41.9C1784.1 83.3 1873.7 146 1976.7 158.9C2236.1 191.3 2540.9 70.2 2629.5 410C2692.2 650.5 2598.4 782.8 2774.7 1005.9C2936.9 1211.1 2828 1591.1 2684.2 1663.5C2684.3 1663.5 146.699 1675.2 146.699 1675.2Z" fill="#E3EAFF"/>
<path d="M45.2997 1460.5C70.8997 1459.4 98.1997 1480.1 98.1997 1480.1C98.1997 1480.1 72.8997 1507.7 47.2997 1508.8C21.6997 1509.9 0.499667 1500 -0.100333 1486.6C-0.600333 1473.3 19.6997 1461.6 45.2997 1460.5Z" fill="#95A6DB"/>
<path d="M100.6 1507.1C115 1485.9 147.9 1476.3 147.9 1476.3C147.9 1476.3 155 1513.1 140.6 1534.2C126.2 1555.4 105.6 1566.5 94.4998 1559C83.4998 1551.6 86.1998 1528.3 100.6 1507.1Z" fill="#95A6DB"/>
<path d="M222.099 1458.5C226.199 1456.8 229.099 1455.8 229.899 1455.6C229.999 1455.6 230.099 1455.5 230.099 1455.5V1455.6C230.199 1456 230.399 1457.2 230.699 1459C232.199 1468.7 235.199 1496.1 223.899 1513.5C209.899 1534.9 189.499 1546.4 178.299 1539.1C167.099 1531.8 169.399 1508.5 183.399 1487.1C189.699 1477.5 199.699 1470.1 208.899 1465C213.699 1462.3 218.399 1460.1 222.099 1458.5Z" fill="#95A6DB"/>
<path d="M129.299 1423.1C146.499 1442.1 147.999 1476.4 147.999 1476.4C147.999 1476.4 110.599 1474.6 93.3995 1455.6C76.1995 1436.6 70.2995 1413.9 80.2995 1405C90.0995 1396 112.099 1404.1 129.299 1423.1Z" fill="#95A6DB"/>
<path d="M206.3 1407.5C225.4 1424.6 230.4 1458.5 230.4 1458.5C230.4 1458.5 193 1460.6 174 1443.5C154.9 1426.4 146.7 1404.5 155.6 1394.5C164.6 1384.6 187.2 1390.4 206.3 1407.5Z" fill="#95A6DB"/>
<path d="M87.1992 1478C87.5992 1478 123.699 1480.1 209.499 1457.5C215.799 1455.8 222.299 1454 229.099 1452.1L229.199 1452.5L230.099 1455.5V1455.6C230.199 1456 230.399 1457.2 230.699 1459C222.999 1461.2 215.799 1463.2 208.799 1465C123.499 1487.3 88.2992 1485.2 86.6992 1485.1L87.1992 1478Z" fill="#95A6DB"/>
<path d="M133.8 1106.7C140.8 1132.2 126.2 1164.4 126.2 1164.4C126.2 1164.4 92.5998 1145.3 85.5998 1119.9C78.5998 1094.4 83.6998 1070.8 96.9998 1067.2C110.4 1063.6 126.8 1081.3 133.8 1106.7Z" fill="#95A6DB"/>
<path d="M102.699 1184.6C126.699 1188.8 147.899 1213.7 147.899 1213.7C147.899 1213.7 118.699 1234.2 94.6994 1230C70.6994 1225.8 52.9994 1212.2 55.1994 1199.7C57.3994 1187.2 78.6994 1180.4 102.699 1184.6Z" fill="#95A6DB"/>
<path d="M188.899 1279.7C192.299 1282.8 194.399 1285.2 194.999 1285.8C195.099 1285.9 195.099 1285.9 195.099 1286L194.999 1286.1C194.699 1286.3 193.599 1287.1 192.099 1288.1C183.599 1293.6 159.099 1308.1 137.899 1304.8C111.799 1300.7 92.3994 1286.4 94.4994 1272.8C96.5994 1259.2 119.499 1251.4 145.599 1255.5C157.299 1257.3 168.399 1263.6 177.199 1270.1C181.799 1273.4 185.799 1276.9 188.899 1279.7Z" fill="#95A6DB"/>
<path d="M231.899 1313C236.399 1313.7 239.499 1314.4 240.299 1314.6C240.399 1314.6 240.499 1314.6 240.499 1314.7V1314.8C240.299 1315.2 239.899 1316.4 239.199 1318.1C235.299 1327.4 223.099 1353.1 203.699 1362.3C179.799 1373.6 155.699 1372.6 149.799 1360.1C143.899 1347.6 158.499 1328.4 182.399 1317.1C193.099 1312.1 205.899 1311 216.699 1311.4C222.499 1311.7 227.799 1312.4 231.899 1313Z" fill="#95A6DB"/>
<path d="M183.9 1185.7C173.1 1204.5 146 1214.6 146 1214.6C146 1214.6 137.7 1184.1 148.5 1165.3C159.3 1146.5 175.9 1135.9 185.7 1141.5C195.4 1147.2 194.6 1166.9 183.9 1185.7Z" fill="#95A6DB"/>
<path d="M229.9 1240.1C221.9 1265.3 192.1 1284.4 192.1 1284.4C192.1 1284.4 174.3 1250.1 182.3 1224.9C190.3 1199.7 207.5 1182.7 220.6 1186.9C233.7 1191.2 237.9 1215 229.9 1240.1Z" fill="#95A6DB"/>
<path d="M288.6 1269.5C280.6 1294.7 250.8 1313.8 250.8 1313.8C250.8 1313.8 233 1279.5 241 1254.3C249 1229.1 266.2 1212.1 279.3 1216.3C292.5 1220.5 296.6 1244.3 288.6 1269.5Z" fill="#95A6DB"/>
<path d="M127.399 1157.7C128.599 1160.6 129.499 1163.3 130.399 1166.1L133.199 1174.3C135.099 1179.8 137.099 1185.2 139.199 1190.5C143.399 1201.2 148.199 1211.7 153.599 1221.8C164.399 1242 178.099 1260.8 194.599 1276.5C211.199 1292.3 230.499 1305 251.599 1313.8C262.099 1318.3 272.999 1322.1 283.999 1324.9C289.499 1326.3 295.099 1327.5 300.699 1328.3C303.499 1328.7 306.299 1329 309.099 1329.2C310.499 1329.3 311.899 1329.4 313.199 1329.4C313.899 1329.4 314.599 1329.4 315.199 1329.4C315.499 1329.4 315.899 1329.4 316.199 1329.4C316.499 1329.4 316.899 1329.4 317.099 1329.4C319.799 1329.1 322.199 1331.1 322.399 1333.8C322.699 1336.5 320.699 1338.9 317.999 1339.1C317.799 1339.1 317.699 1339.1 317.499 1339.1H317.299C316.799 1339.1 316.399 1339.1 315.999 1339.1C315.599 1339.1 315.199 1339 314.799 1339C313.999 1339 313.299 1338.9 312.499 1338.8C310.999 1338.7 309.499 1338.5 307.999 1338.3C304.999 1337.9 302.099 1337.4 299.099 1336.7C296.199 1336.1 293.299 1335.4 290.399 1334.7L286.099 1333.6C284.699 1333.2 283.199 1332.8 281.799 1332.4C270.499 1329 259.499 1324.8 248.799 1320C238.099 1315.2 227.599 1309.7 217.799 1303.1C207.999 1296.6 198.799 1289.1 190.299 1280.9C181.799 1272.7 174.199 1263.7 167.099 1254.3C163.599 1249.6 160.299 1244.7 157.099 1239.8C153.999 1234.8 150.999 1229.8 148.199 1224.6C146.799 1222 145.499 1219.4 144.099 1216.8C142.799 1214.2 141.499 1211.5 140.299 1208.9C137.799 1203.6 135.499 1198.2 133.299 1192.8C131.099 1187.4 128.999 1181.9 127.099 1176.4L124.199 1168.2C123.199 1165.5 122.299 1162.7 121.199 1160.3C120.499 1158.7 121.299 1156.8 122.899 1156C124.799 1155.3 126.699 1156 127.399 1157.7Z" fill="#95A6DB"/>
<path d="M2474.5 950.3C2469.5 950.4 2464.7 950.9 2459.9 951.8L2467.4 1669.9C2467.4 1669.9 2754.7 1676.9 2793 1676.5C2857.6 1675.8 2909.3 1613.6 2908.5 1537.6C2907.7 1461.6 2854.7 1400.5 2790.1 1401.2C2781.3 1401.3 2772.7 1402.5 2764.5 1404.8C2765 1399.3 2765.2 1393.8 2765.1 1388.2C2764.4 1325.1 2729.4 1271.9 2681.1 1253.1C2685.3 1244.8 2687.6 1235.1 2687.5 1224.7C2687.2 1194.6 2666.2 1170.4 2640.6 1170.7C2636.7 1170.7 2632.9 1171.4 2629.2 1172.5C2629.9 1166.9 2630.2 1161.1 2630.1 1155.3C2629.5 1100.6 2596.6 1055.1 2553.1 1043.7C2554 1038.9 2554.4 1033.9 2554.4 1028.8C2554.1 984.9 2518.3 949.8 2474.5 950.3Z" fill="#95A6DB"/>
<path d="M2941.3 1720.4H89.8992C75.6992 1720.4 64.1992 1708.9 64.1992 1694.7C64.1992 1680.5 75.6992 1669 89.8992 1669H2941.3C2955.5 1669 2967 1680.5 2967 1694.7C2967 1708.9 2955.5 1720.4 2941.3 1720.4Z" fill="#494C7F"/>
<path d="M1536.7 1483H913.6V219.5C913.6 178.5 946.8 145.3 987.8 145.3H1462.4C1503.4 145.3 1536.6 178.5 1536.6 219.5V1483H1536.7Z" fill="white"/>
<path d="M1476.6 376.6H971.3V245.7C971.3 226.8 986.6 211.5 1005.5 211.5H1442.4C1461.3 211.5 1476.6 226.8 1476.6 245.7V376.6V376.6Z" fill="#E3EAFF"/>
<path d="M1476.6 459.6H971.3V624.7H1476.6V459.6Z" fill="#E3EAFF"/>
<path d="M1476.6 707.6H971.3V872.7H1476.6V707.6Z" fill="#E3EAFF"/>
<path d="M1476.6 955.6H971.3V1120.7H1476.6V955.6Z" fill="#E3EAFF"/>
<path d="M1017.8 236.1H981.3V376.7H1017.8V236.1Z" fill="#C2D1FF"/>
<path d="M1043.6 247.3H1017.2V376.6H1043.6V247.3Z" fill="#C2D1FF"/>
<path d="M1180.59 376.616H1217.09V236.016H1180.59V376.616Z" fill="#C2D1FF"/>
<path d="M1349.2 376.616H1385.7V236.016H1349.2V376.616Z" fill="#C2D1FF"/>
<path d="M1405.78 368.438L1428.36 376.557L1475.93 244.239L1453.34 236.12L1405.78 368.438Z" fill="#C2D1FF"/>
<path d="M1285.87 376.637H1312.67V268.637H1285.87V376.637Z" fill="#C2D1FF"/>
<path d="M1269.11 376.605H1286.01V242.105H1269.11V376.605Z" fill="#CFDBFF"/>
<path d="M1154.75 376.642H1181.15V247.342H1154.75V376.642Z" fill="#CFDBFF"/>
<path d="M1217.06 376.599H1243.46V261.699H1217.06V376.599Z" fill="#CFDBFF"/>
<path d="M1242.85 376.657H1269.25V251.957H1242.85V376.657Z" fill="#CFDBFF"/>
<path d="M1312.66 376.662H1349.36V221.162H1312.66V376.662Z" fill="#CFDBFF"/>
<path d="M1063.35 246.481L1042.8 252.463L1078.94 376.603L1099.49 370.622L1063.35 246.481Z" fill="#C2D1FF"/>
<path d="M1035.8 471.8H992.6V623.9H1035.8V471.8Z" fill="#CFDBFF"/>
<path d="M1068.6 487.6H1035.5V623.9H1068.6V487.6Z" fill="#C2D1FF"/>
<path d="M1101 478.4H1067.9V623.9H1101V478.4Z" fill="#C2D1FF"/>
<path d="M1133.9 515.1H1100.8V623.9H1133.9V515.1Z" fill="#CFDBFF"/>
<path d="M1167.1 489.6H1134V623.9H1167.1V489.6Z" fill="#C2D1FF"/>
<path d="M1232.9 468.3H1199.8V623.9H1232.9V468.3Z" fill="#C2D1FF"/>
<path d="M1266.1 476.8H1233V623.9H1266.1V476.8Z" fill="#C2D1FF"/>
<path d="M1290.27 475.726L1266.38 482.379L1305.85 624.081L1329.74 617.427L1290.27 475.726Z" fill="#C2D1FF"/>
<path d="M1200 504.3H1166.9V623.9H1200V504.3Z" fill="#CFDBFF"/>
<path d="M1408.8 504.3H1375.7V623.9H1408.8V504.3Z" fill="#CFDBFF"/>
<path d="M1437 481.5H1408.5V623.9H1437V481.5Z" fill="#CFDBFF"/>
<path d="M1464.9 470.6H1436.4V623.9H1464.9V470.6Z" fill="#C2D1FF"/>
<path d="M1026.1 744.5H998.199V872.2H1026.1V744.5Z" fill="#C2D1FF"/>
<path d="M1092.3 719.6H1064.4V872.3H1092.3V719.6Z" fill="#C2D1FF"/>
<path d="M1112.1 730.1H1091.3V872.2H1112.1V730.1Z" fill="#C2D1FF"/>
<path d="M1132.7 751.2H1111.9V872.2H1132.7V751.2Z" fill="#C2D1FF"/>
<path d="M1152.4 739.3H1131.6V872.3H1152.4V739.3Z" fill="#C2D1FF"/>
<path d="M1045.3 733H1025.5V872.2H1045.3V733Z" fill="#CFDBFF"/>
<path d="M999.599 992.3H971.699V1120H999.599V992.3Z" fill="#C2D1FF"/>
<path d="M1018.8 980.8H999V1120H1018.8V980.8Z" fill="#CFDBFF"/>
<path d="M1064.5 754.6H1044.7V872.2H1064.5V754.6Z" fill="#CFDBFF"/>
<path d="M1172 754.6H1152.2V872.2H1172V754.6Z" fill="#CFDBFF"/>
<path d="M1333.4 724.1H1312.6V872.2H1333.4V724.1Z" fill="#C2D1FF"/>
<path d="M1394.2 715.9H1358.4V872.3H1394.2V715.9Z" fill="#C2D1FF"/>
<path d="M1359 741.2H1333.2V872.2H1359V741.2Z" fill="#CFDBFF"/>
<path d="M1185.19 756.18L1171.89 760.557L1208.65 872.265L1221.95 867.888L1185.19 756.18Z" fill="#CFDBFF"/>
<path d="M1270.86 867.808L1284.15 872.184L1312.66 785.554L1299.36 781.177L1270.86 867.808Z" fill="#C2D1FF"/>
<path d="M1239.67 1119.61H1276.17V979.005H1239.67V1119.61Z" fill="#C2D1FF"/>
<path d="M1213.82 1119.63H1240.22V990.332H1213.82V1119.63Z" fill="#CFDBFF"/>
<path d="M1276.13 1119.59H1302.53V1004.69H1276.13V1119.59Z" fill="#CFDBFF"/>
<path d="M1301.92 1119.65H1328.32V994.947H1301.92V1119.65Z" fill="#CFDBFF"/>
<path d="M2484.8 1588.5H1625V357.5C1625 309.7 1663.8 270.9 1711.6 270.9H2398.3C2446.1 270.9 2484.9 309.7 2484.9 357.5V1588.5H2484.8Z" fill="white"/>
<path d="M2401.9 498.9H1704.7V376.1C1704.7 354.1 1722.5 336.3 1744.5 336.3H2362C2384 336.3 2401.8 354.1 2401.8 376.1V498.9H2401.9Z" fill="#E3EAFF"/>
<path d="M2401.8 580.6H1704.6V743.2H2401.8V580.6Z" fill="#E3EAFF"/>
<path d="M2401.8 824.8H1704.6V987.4H2401.8V824.8Z" fill="#E3EAFF"/>
<path d="M2393 1070.1H1704.6V1230.6H2393V1070.1Z" fill="#E3EAFF"/>
<path d="M2148.35 987.281H2183.65V851.481H2148.35V987.281Z" fill="#C2D1FF"/>
<path d="M2123.39 987.227H2148.89V862.227H2123.39V987.227Z" fill="#C2D1FF"/>
<path d="M1991.1 851.4H1955.8V987.2H1991.1V851.4Z" fill="#C2D1FF"/>
<path d="M1828.2 851.4H1792.9V987.2H1828.2V851.4Z" fill="#C2D1FF"/>
<path d="M1727.48 851.494L1705.65 859.343L1751.59 987.131L1773.42 979.282L1727.48 851.494Z" fill="#C2D1FF"/>
<path d="M1889.4 882.9H1863.5V987.3H1889.4V882.9Z" fill="#C2D1FF"/>
<path d="M1905.6 857.3H1889.3V987.2H1905.6V857.3Z" fill="#CFDBFF"/>
<path d="M2016 862.3H1990.5V987.3H2016V862.3Z" fill="#CFDBFF"/>
<path d="M1955.8 876.3H1930.3V987.3H1955.8V876.3Z" fill="#CFDBFF"/>
<path d="M1930.9 866.7H1905.4V987.2H1930.9V866.7Z" fill="#CFDBFF"/>
<path d="M1863.5 837H1828V987.3H1863.5V837Z" fill="#CFDBFF"/>
<path d="M2069.48 981.465L2089.36 987.251L2124.29 867.238L2104.42 861.452L2069.48 981.465Z" fill="#C2D1FF"/>
<path d="M2121.99 498.793H2162.79V364.193H2121.99V498.793Z" fill="#CFDBFF"/>
<path d="M2245.73 498.789H2274.03V348.289H2245.73V498.789Z" fill="#CFDBFF"/>
<path d="M2273.29 498.834H2293.89V370.734H2273.29V498.834Z" fill="#CFDBFF"/>
<path d="M2293.25 498.834H2313.85V363.934H2293.25V498.834Z" fill="#C2D1FF"/>
<path d="M2349.36 498.832H2374.96V371.632H2349.36V498.832Z" fill="#C2D1FF"/>
<path d="M2333.92 498.794H2349.92V382.294H2333.92V498.794Z" fill="#CFDBFF"/>
<path d="M2313.05 498.849H2333.65V357.649H2313.05V498.849Z" fill="#CFDBFF"/>
<path d="M2090.94 498.821H2122.24V378.221H2090.94V498.821Z" fill="#C2D1FF"/>
<path d="M2060.32 498.809H2091.62V370.009H2060.32V498.809Z" fill="#C2D1FF"/>
<path d="M2029.26 498.811H2060.56V402.511H2029.26V498.811Z" fill="#CFDBFF"/>
<path d="M1997.88 498.83H2029.18V379.93H1997.88V498.83Z" fill="#C2D1FF"/>
<path d="M1935.87 498.815H1967.17V361.115H1935.87V498.815Z" fill="#C2D1FF"/>
<path d="M1904.49 498.841H1935.79V368.641H1904.49V498.841Z" fill="#C2D1FF"/>
<path d="M1844.4 493.1L1867 499L1904.2 373.6L1881.7 367.7L1844.4 493.1Z" fill="#C2D1FF"/>
<path d="M2211.6 496.1L2198.8 499.3L2162.5 373.6L2175.3 370.4L2211.6 496.1Z" fill="#C2D1FF"/>
<path d="M1954.42 741.476H1995.22V606.876H1954.42V741.476Z" fill="#CFDBFF"/>
<path d="M2083.72 741.501H2114.12V592.701H2083.72V741.501Z" fill="#CFDBFF"/>
<path d="M2113.64 741.531H2140.54V603.131H2113.64V741.531Z" fill="#C2D1FF"/>
<path d="M2217.27 741.531H2244.17V603.131H2217.27V741.531Z" fill="#C2D1FF"/>
<path d="M2244.36 741.508H2263.66V621.908H2244.36V741.508Z" fill="#C2D1FF"/>
<path d="M2318.79 741.471H2335.99V612.171H2318.79V741.471Z" fill="#C2D1FF"/>
<path d="M2263.84 741.52H2278.24V589.92H2263.84V741.52Z" fill="#CFDBFF"/>
<path d="M2277.71 741.454H2297.71V599.654H2277.71V741.454Z" fill="#CFDBFF"/>
<path d="M2297.34 741.469H2319.34V642.769H2297.34V741.469Z" fill="#CFDBFF"/>
<path d="M2140.04 741.542H2160.04V586.542H2140.04V741.542Z" fill="#CFDBFF"/>
<path d="M2194.89 741.467H2217.79V612.867H2194.89V741.467Z" fill="#CFDBFF"/>
<path d="M1923.36 741.503H1954.66V620.903H1923.36V741.503Z" fill="#C2D1FF"/>
<path d="M1892.74 741.492H1924.04V612.692H1892.74V741.492Z" fill="#C2D1FF"/>
<path d="M2044 738.8L2031.2 741.9L1994.9 616.3L2007.7 613.1L2044 738.8Z" fill="#C2D1FF"/>
<path d="M1892.7 737L1873.9 741.8L1837.1 616.3L1855.8 611.5L1892.7 737Z" fill="#CFDBFF"/>
<path d="M1966.83 498.83H1998.13V392.93H1966.83V498.83Z" fill="#CFDBFF"/>
<path d="M2194.83 1230.39H2226.13V1109.79H2194.83V1230.39Z" fill="#C2D1FF"/>
<path d="M2164.11 1230.48H2195.41V1101.68H2164.11V1230.48Z" fill="#C2D1FF"/>
<path d="M2133.16 1230.48H2164.46V1134.18H2133.16V1230.48Z" fill="#CFDBFF"/>
<path d="M2101.77 1230.4H2133.07V1111.5H2101.77V1230.4Z" fill="#C2D1FF"/>
<path d="M2039.66 1230.48H2070.96V1092.78H2039.66V1230.48Z" fill="#C2D1FF"/>
<path d="M2070.72 1230.4H2102.02V1124.5H2070.72V1230.4Z" fill="#CFDBFF"/>
<path d="M1769.7 498.83H1801V392.93H1769.7V498.83Z" fill="#CFDBFF"/>
<path d="M1743.13 498.845H1770.03V372.745H1743.13V498.845Z" fill="#CFDBFF"/>
<path d="M1716.87 498.767H1743.77V363.167H1716.87V498.767Z" fill="#C2D1FF"/>
<path d="M1725.5 626.8H1705.3V741.5H1725.5V626.8Z" fill="#CFDBFF"/>
<path d="M1747 606.6H1724.7V741.5H1747V606.6Z" fill="#C2D1FF"/>
<path d="M1772 614.3H1745.6V741.6H1772V614.3Z" fill="#C2D1FF"/>
<path d="M1821.4 587.8H1795V741.5H1821.4V587.8Z" fill="#C2D1FF"/>
<path d="M1839.5 601.1H1820.7V741.6H1839.5V601.1Z" fill="#C2D1FF"/>
<path d="M1794.9 630.3H1772V741.6H1794.9V630.3Z" fill="#CFDBFF"/>
<path d="M175.6 1669.4H1136.1L655.8 685.7L175.6 1669.4Z" fill="#4361BF"/>
<path d="M2336.6 1669.4H1100.8L642.6 590.8H1830.2C1859.5 590.8 1885.9 608.3 1897.3 635.2L2336.6 1669.4Z" fill="#748DDB"/>
<path d="M1039.5 1652.2L639.9 723.4L201.3 1653.1C196.6 1663.1 186.6 1669.4 175.6 1669.4H152.2C139.5 1669.4 131.1 1656.3 136.4 1644.8L607.7 612.8C613.9 599.1 627.7 590.5 642.7 590.8C657.7 591.1 671.1 600.3 676.8 614.2L1106.7 1645.3C1111.5 1656.8 1103.1 1669.4 1090.7 1669.4H1065.7C1054.3 1669.4 1044 1662.6 1039.5 1652.2Z" fill="#5A79DB"/>
<path d="M639.9 723.4C639.9 723.4 612.3 1126.3 507.6 1417.3C454.1 1566 391.9 1669.3 391.9 1669.3C391.9 1669.3 367.4 1671.2 359.2 1670.9C342.2 1670.2 339.7 1664.2 333.8 1667.1C328.1 1670 308.2 1668.6 308.2 1668.6C308.2 1668.6 315.5 1661.2 322.4 1639.3C310.4 1660.7 299.2 1669.3 287.8 1669.3C279.7 1669.3 266.9 1667.5 265.1 1667.1C263.1 1666.6 253.2 1667.7 246.4 1668.6L233 1668.3C228.6 1667.3 223.9 1665.5 223.9 1662.5C221.2 1664.5 214.1 1666.4 207.2 1667.7L175.6 1669.3L639.9 723.4Z" fill="#E3EAFF"/>
<path d="M1052.3 1669.4C1027.2 1669.4 1000.7 1663.8 1000.7 1663.8C1000.7 1663.8 991.8 1667.1 977 1668.4C962.2 1669.8 958.4 1666.7 952.6 1659.1C951.6 1664.3 944 1669.4 932.3 1668C920.6 1666.7 906.8 1665.2 895.1 1668.3C883.4 1671.4 866.6 1664.2 863.5 1655.9C859.4 1663.9 852.6 1667 843.1 1669.3H835.6C829.9 1669.3 824.7 1665.9 822.5 1660.6C811.2 1633.4 775.4 1544.2 737.4 1419.4C647.3 1123.5 639.8 719.7 639.8 719.7L1052.3 1669.4Z" fill="#E3EAFF"/>
<path d="M1323.8 1500.1H1168.6L850.6 724.1C847.8 717.3 852.8 709.9 860.1 709.9H989C995.6 709.9 1001.6 713.9 1004.2 720.1L1323.8 1500.1Z" fill="#5A79DB"/>
<path d="M414.7 1436.9C414.7 1436.9 546.5 1151.8 594.7 932.1C555 1151.8 488.8 1305.7 414.7 1436.9Z" fill="#95A6DB"/>
<path d="M512.9 1050.8C512.9 1050.8 459.9 1205.3 407.8 1298C442.1 1254.7 497.1 1125 512.9 1050.8Z" fill="#95A6DB"/>
<path d="M827.8 1299.9C827.8 1299.9 893.1 1504 958.4 1603.7C912.3 1571 835.4 1408.8 827.8 1299.9Z" fill="#95A6DB"/>
<path d="M240.1 1632C240.1 1632 302 1527.8 343.7 1451.5C326.4 1525 257.3 1621 240.1 1632Z" fill="#95A6DB"/>
<path d="M675.199 1291.4L726.699 1344L669.999 1318.5L675.199 1291.4Z" fill="#0E6A41"/>
<path d="M606.799 1540.4C627.799 1537 661.299 1546.2 679.999 1536.2C716.399 1554.6 762.299 1579.4 762.299 1579.4C739.599 1603.9 667.199 1646 667.199 1646C628.799 1627.8 590.799 1608.5 548.699 1603.1C552.799 1582.1 560.499 1561.6 570.599 1542.8C582.599 1543.1 594.799 1542.3 606.799 1540.4Z" fill="#201D40"/>
<path d="M633.799 1265.1C652.099 1274 658.899 1279.4 675.199 1291.4C673.299 1321.2 678.599 1357.4 669.799 1386C655.399 1432.6 666.399 1503.1 694.999 1542.6C672.999 1611.1 566.799 1607.9 520.499 1600.4C497.399 1549.9 497.899 1487.8 480.499 1397.7L486.599 1282.9C513.399 1264.2 554.599 1258.5 554.599 1258.5C554.599 1258.5 611.099 1254.1 633.799 1265.1Z" fill="#3F964F"/>
<path d="M797 1610.9C763.2 1637.4 724 1662.4 685.7 1681.8C669 1668.1 667.1 1663.3 662.6 1642.2C691.5 1616.1 721.3 1593.2 751.2 1568.2C769 1583.8 797 1610.9 797 1610.9Z" fill="#F37A50"/>
<path d="M807.299 1680.2C803.699 1695.9 799.099 1710.9 794.299 1726.3C757.899 1721.2 720.999 1712.7 686.899 1698.9C689.499 1676.7 691.499 1654.5 694.099 1632.4C728.199 1655.5 766.899 1671.9 807.299 1680.2Z" fill="#F37A50"/>
<path d="M534.899 1547.7L695.999 1639.5L675.699 1684.7C653.999 1695.6 579.499 1706.3 543.199 1685.6C501.499 1661.8 506.799 1559.6 534.899 1547.7Z" fill="#201D40"/>
<path d="M611.999 1722.6L583.899 1667.7C583.899 1667.7 600.899 1668 610.399 1686.6C616.799 1699 615.499 1714.6 611.999 1722.6Z" fill="white"/>
<path d="M662.699 1664.8C667.199 1673.6 664.299 1689.6 662.999 1690.4C657.699 1693.6 647.899 1701.1 643.699 1704.1C639.999 1706.7 619.299 1725.8 619.299 1725.8L608.499 1727.9L589.199 1692.5L583.799 1663.5C583.799 1663.5 597.399 1662.3 605.799 1660.2C617.099 1657.3 629.399 1651 640.599 1647.1C642.399 1646.4 656.599 1652.9 662.699 1664.8Z" fill="#E62552"/>
<path d="M602.499 1690.4C609.699 1704.5 611.799 1727.8 619.399 1725.8C619.399 1725.8 612.299 1740.2 598.499 1740.7C592.599 1735.6 583.599 1721.6 575.099 1707.3C566.699 1693 561.699 1674.2 561.699 1674.2C561.699 1674.2 575.199 1664.2 583.899 1663.5C582.299 1666.5 596.399 1678.6 602.499 1690.4Z" fill="white"/>
<path d="M534.9 1547.7C569 1526.1 628.4 1601 763.8 1661.1C754.9 1677.6 745.5 1702.1 737.7 1720C737.7 1720 623.1 1697.3 556.6 1650.5C518.9 1657.6 514.3 1630.5 514 1628.7C509.6 1593.4 519.7 1557.4 534.9 1547.7Z" fill="#2C2858"/>
<path d="M860.799 1581.3C842.299 1606.3 739.099 1656.1 739.099 1656.1L701.899 1601.8C718.999 1589 807.399 1521.2 835.899 1521.2C852.099 1524.9 884.799 1548.8 860.799 1581.3Z" fill="#2C2858"/>
<path d="M856.699 1688.3L835.799 1753C835.799 1753 822.699 1739.5 829.799 1717.6C834.599 1702.8 847.699 1691.7 856.699 1688.3Z" fill="white"/>
<path d="M772.099 1693.7C775.399 1683.3 790.199 1673.1 791.799 1673.5C798.499 1675.1 811.999 1676.9 817.599 1677.9C822.599 1678.7 853.499 1680 853.499 1680L863.499 1686.8L850.999 1729.4L832.599 1756.3C832.599 1756.3 821.099 1746.6 812.799 1741.7C801.699 1735.2 787.199 1730.4 775.499 1724.8C773.599 1723.9 767.599 1707.8 772.099 1693.7Z" fill="#E62552"/>
<path d="M839 1720.8C844.3 1704.2 860.9 1684.4 853.5 1680C853.5 1680 870.3 1674.3 881.4 1684.7C882 1693.3 878.2 1711.2 873.6 1729C869 1746.7 858.2 1765.2 858.2 1765.2C858.2 1765.2 839.9 1762.5 832.6 1756.3C836.1 1755.1 834.5 1734.7 839 1720.8Z" fill="white"/>
<path d="M578.7 1170.8C581.8 1170.9 584.8 1171.5 587.7 1172.4C588.5 1172.7 588.9 1173.5 588.7 1174.3C588.5 1174.9 587.9 1175.3 587.3 1175.3C587.1 1175.3 587 1175.3 586.8 1175.2C584.2 1174.3 581.4 1173.8 578.7 1173.7C577.9 1173.7 577.2 1173 577.2 1172.1C577.1 1171.4 577.9 1170.8 578.7 1170.8Z" fill="white"/>
<path d="M583 1208.9L608.2 1209L613.9 1268.6C613.9 1268.6 605.2 1284.9 584.5 1284.1C563.8 1283.3 553.1 1268.7 553.1 1268.7L554.5 1206.2L583 1208.9Z" fill="#F37A50"/>
<path d="M545.299 1169.8C543.499 1211.5 568.499 1246.5 601.299 1248C634.099 1249.5 662.099 1216.8 663.999 1175.1C665.799 1133.4 640.799 1098.4 607.999 1096.9C575.199 1095.4 547.099 1128.1 545.299 1169.8Z" fill="#F37A50"/>
<path d="M646.599 1181.2C647.199 1184.3 650.099 1186.3 653.199 1185.8C656.299 1185.2 658.299 1182.3 657.799 1179.2C657.199 1176.1 654.299 1174.1 651.199 1174.6C648.099 1175.1 646.099 1178.1 646.599 1181.2Z" fill="black"/>
<path d="M600.499 1179.5C601.099 1182.9 604.299 1185.1 607.699 1184.5C611.099 1183.9 613.299 1180.7 612.599 1177.3C611.999 1173.9 608.799 1171.7 605.399 1172.3C602.099 1172.9 599.899 1176.1 600.499 1179.5Z" fill="black"/>
<path d="M634.999 1185.9C639.499 1194.6 645.299 1205.3 645.299 1205.3C645.299 1205.3 641.599 1213.8 629.999 1213C635.099 1211.4 640.199 1208.5 638.699 1201.8C637.199 1195.1 634.999 1185.9 634.999 1185.9Z" fill="#DE623C"/>
<path d="M591.8 1171.5C591.6 1171.4 591.4 1171.3 591.2 1171.2C590 1170.2 589.7 1168.4 590.7 1167.2C593.3 1163.8 600.4 1158.3 608.3 1161.9C609.7 1162.6 610.4 1164.2 609.7 1165.7C609.1 1167.1 607.4 1167.8 605.9 1167.1C600 1164.5 595.1 1170.7 595.1 1170.7C594.4 1171.7 593 1172 591.8 1171.5Z" fill="#201D40"/>
<path d="M646.199 1167.8C645.799 1167.6 645.499 1167.4 645.199 1167C644.399 1165.9 644.699 1164.5 645.799 1163.7C645.999 1163.6 649.999 1160.8 654.599 1162C657.799 1162.8 660.399 1165.1 662.299 1168.9C662.899 1170.1 662.399 1171.5 661.299 1172.1C660.099 1172.7 658.699 1172.2 658.099 1171.1C656.799 1168.6 655.299 1167.1 653.499 1166.6C650.999 1166 648.599 1167.6 648.599 1167.6C647.799 1168 646.899 1168.1 646.199 1167.8Z" fill="#201D40"/>
<path d="M537.899 1134.7C541.299 1095.2 579.299 1088.9 579.299 1088.9C579.299 1088.9 571.799 1084.7 575.799 1073.3C580.799 1077.8 587.399 1080.6 594.099 1081.1C639.299 1084.6 665.899 1096.9 658.399 1113.5C655.699 1119.4 683.899 1127.2 663.799 1166C663.299 1162.9 662.699 1142.5 654.799 1137C646.899 1131.4 649.499 1146.6 630.199 1140.9C610.799 1135.1 599.399 1124.6 583.599 1129.9C570.799 1134.9 543.599 1185 545.899 1187.4C538.799 1179.8 536.399 1152 537.899 1134.7Z" fill="#201D40"/>
<path d="M660.299 1197.4C660.299 1197.4 652.599 1218.9 646.699 1223.9C647.399 1214.2 636.699 1220 629.999 1218C613.899 1213.1 588.899 1195.7 575.899 1217.2C554.699 1214.7 550.999 1168.5 550.999 1168.5C529.899 1212.3 550.899 1245.1 601.199 1257.8C637.099 1266.9 660.399 1232.1 660.299 1197.4Z" fill="#201D40"/>
<path d="M609.099 1225.4C606.399 1223.3 603.899 1220.7 601.399 1217.5C600.799 1216.7 600.899 1215.5 601.699 1214.8C602.499 1214.2 603.699 1214.3 604.399 1215.1C609.799 1222.2 615.799 1226.2 622.099 1227C629.899 1228 635.599 1223.7 635.599 1223.6C636.399 1223 637.599 1223.1 638.299 1223.9C638.899 1224.7 638.799 1225.9 637.999 1226.6C637.699 1226.8 631.099 1231.9 621.699 1230.8C617.299 1230.3 613.099 1228.5 609.099 1225.4Z" fill="#DE623C"/>
<path d="M559.799 1164.8C565.599 1172.7 565.099 1183 558.599 1187.7C552.099 1192.5 542.199 1189.9 536.299 1182C530.499 1174.1 530.999 1163.8 537.499 1159.1C543.999 1154.3 553.999 1156.9 559.799 1164.8Z" fill="#F37A50"/>
<path d="M553.199 1184.8C552.899 1184.8 552.699 1184.7 552.399 1184.6C551.299 1184.2 550.799 1182.9 551.299 1181.9C553.099 1177.5 553.299 1174.1 551.799 1171.9C549.299 1168.2 542.999 1168.2 542.999 1168.2C541.899 1168.2 540.899 1167.3 540.899 1166.1C540.899 1164.9 541.799 1164 542.999 1164C543.299 1164 551.599 1164 555.299 1169.5C557.699 1173 557.599 1177.7 555.299 1183.5C554.799 1184.3 553.999 1184.8 553.199 1184.8Z" fill="#DE623C"/>
<path d="M736.499 1474C736.799 1474.1 737.099 1474.2 737.399 1474.2H738.399C740.199 1474 741.899 1472.7 742.499 1470.9L789.699 1318.6C789.799 1318.3 789.899 1318 789.899 1317.7C789.899 1317.5 789.899 1317.3 789.899 1317.1C789.899 1317 789.899 1316.9 789.899 1316.7C789.899 1316.6 789.899 1316.5 789.799 1316.4C789.499 1314.7 788.299 1313.2 786.499 1312.6C786.199 1312.5 785.899 1312.4 785.599 1312.4C785.299 1312.4 784.899 1312.4 784.599 1312.4H665.799L618.099 1474.3H736.599L736.499 1474Z" fill="#E62552"/>
<path d="M666.899 1312.5C664.399 1311.7 661.699 1313.1 660.899 1315.7L613.999 1467.6L613.899 1468C613.099 1470.5 614.499 1473.2 616.999 1474C619.499 1474.8 622.199 1473.4 622.999 1470.8L670.099 1318.5C670.799 1316 669.399 1313.3 666.899 1312.5Z" fill="#8A284C"/>
<path d="M758.099 1328.4C756.499 1333.3 758.599 1338.3 762.599 1339.6C766.699 1340.9 771.299 1338 772.799 1333.1C774.399 1328.2 772.299 1323.2 768.299 1321.9C764.299 1320.6 759.699 1323.5 758.099 1328.4Z" fill="#8A284C"/>
<path d="M743.099 1329.1C741.999 1332.4 743.399 1335.8 746.199 1336.7C748.999 1337.6 752.099 1335.6 753.099 1332.3C754.199 1329 752.799 1325.6 749.999 1324.7C747.199 1323.8 744.099 1325.8 743.099 1329.1Z" fill="#8A284C"/>
<path d="M756.699 1409.1C757.099 1408.8 757.599 1408.6 758.099 1408.5C757.999 1408.4 757.999 1408.4 757.899 1408.3C754.899 1403.8 755.099 1398.5 758.299 1396.4C758.799 1396.1 759.399 1395.8 759.999 1395.7C759.199 1392.4 759.899 1389.2 762.199 1387.7C763.099 1387.1 764.199 1386.8 765.299 1386.8C764.299 1383.6 765.099 1380.1 767.599 1378.4C770.799 1376.3 775.399 1377.6 777.999 1381.5C780.499 1385.3 779.999 1390.1 776.799 1392.2C775.999 1392.7 775.099 1393 774.099 1393.2C776.199 1397.4 775.799 1401.9 772.899 1403.8C772.399 1404.1 771.799 1404.4 771.199 1404.5C771.999 1407.8 771.299 1411 768.999 1412.5C768.199 1413.1 767.199 1413.3 766.199 1413.4C767.299 1416.2 766.599 1419.3 764.299 1420.8C761.599 1422.6 757.699 1421.4 755.499 1418.2C753.599 1415 753.999 1410.9 756.699 1409.1Z" fill="#F37A50"/>
<path d="M610.499 1399.5L621.299 1393.2C621.299 1393.2 624.299 1377.8 641.699 1377.5C639.699 1384 636.799 1393.2 636.799 1393.2C636.799 1393.2 645.399 1399.9 665.699 1388.5C685.599 1384 677.099 1398.5 683.699 1399.6C693.399 1401.1 676.599 1420.2 656.799 1423.2C631.099 1427 628.099 1421.7 628.099 1421.7L613.599 1426.8L610.499 1399.5Z" fill="#F37A50"/>
<path d="M499.599 1417.4C535.799 1414.9 608.199 1395.5 608.199 1395.5C618.099 1410.7 615.399 1430.8 615.399 1430.8C559.099 1480.1 474.399 1496.1 448.399 1484.2C424.699 1473.4 426.999 1315.9 486.599 1282.8L499.599 1417.4Z" fill="#0E6A41"/>
<path d="M2247.7 1481.2H1147.9C1132.1 1481.2 1119.2 1492.3 1119.2 1505.9V1656.1C1119.2 1669.7 1132 1680.8 1147.9 1680.8H2247.6V1481.2H2247.7Z" fill="#3F964F"/>
<path d="M2278.7 1520.1V1641.4C2278.7 1645.8 2282.5 1649.4 2287.1 1649.4H2607.7C2616.7 1649.4 2624 1656.4 2624 1665C2624 1673.6 2616.7 1680.6 2607.7 1680.6H2252.9C2243.2 1680.6 2235.3 1672.7 2235.3 1663V1498.2C2235.3 1488.5 2243.2 1480.6 2252.9 1480.6H2607.7C2616.7 1480.6 2624 1487.6 2624 1496.2V1496.3C2624 1504.9 2616.7 1511.9 2607.7 1511.9H2287C2282.5 1512.2 2278.7 1515.7 2278.7 1520.1Z" fill="#0E6A41"/>
<path d="M2592.9 1649.5H2287.5C2278.7 1649.5 2271.6 1642.4 2271.6 1633.6V1528C2271.6 1519.2 2278.7 1512.1 2287.5 1512.1H2592.9V1649.5Z" fill="white"/>
<path d="M1432.6 1481.2C1432.6 1481.2 1395.4 1567 1432 1680.8C1415.3 1680.8 1383.6 1680.7 1383.6 1680.7C1383.6 1680.7 1344.1 1592.7 1383.6 1481.2C1402.3 1481.2 1432.6 1481.2 1432.6 1481.2Z" fill="#0E6A41"/>
<path d="M2059.2 1481.2C2059.2 1481.2 2022 1567 2058.6 1680.8C2041.9 1680.8 2010.2 1680.7 2010.2 1680.7C2010.2 1680.7 1970.7 1592.7 2010.2 1481.2C2029 1481.2 2059.2 1481.2 2059.2 1481.2Z" fill="#0E6A41"/>
<path d="M2537.6 1535.6H2300.1V1547.9H2537.6V1535.6Z" fill="#E3EAFF"/>
<path d="M2579.2 1566.7H2430.9V1579H2579.2V1566.7Z" fill="#E3EAFF"/>
<path d="M2475.7 1625.8H2283.9V1638.1H2475.7V1625.8Z" fill="#E3EAFF"/>
<path d="M2416.3 1597.5H2326.4V1609.9H2416.3V1597.5Z" fill="#E3EAFF"/>
<path d="M1713.5 1108.9H2643.5C2658.6 1108.9 2670.9 1121.2 2670.9 1136.3V1276.4C2670.9 1291.5 2658.6 1303.8 2643.5 1303.8H1713.5V1108.9Z" fill="#F5A3B7"/>
<path d="M1683.2 1146.9V1265.3C1683.2 1269.6 1679.5 1273.1 1675 1273.1H1362.1C1353.3 1273.1 1346.2 1279.9 1346.2 1288.4C1346.2 1296.8 1353.3 1303.7 1362.1 1303.7H1708.5C1718 1303.7 1725.7 1296 1725.7 1286.5V1125.7C1725.7 1116.2 1718 1108.5 1708.5 1108.5H1362.1C1353.3 1108.5 1346.2 1115.3 1346.2 1123.8V1123.9C1346.2 1132.3 1353.3 1139.2 1362.1 1139.2H1675.1C1679.5 1139.1 1683.2 1142.6 1683.2 1146.9Z" fill="#F57191"/>
<path d="M1376.5 1273.1H1679.9C1688.5 1273.1 1695.6 1266.1 1695.6 1257.4V1154.7C1695.6 1146.1 1688.6 1139 1679.9 1139H1376.5V1273.1Z" fill="white"/>
<path d="M1937 1108.9C1937 1108.9 1974.2 1192.6 1937.6 1303.8C1954.3 1303.8 1986 1303.7 1986 1303.7C1986 1303.7 2025.5 1217.8 1986 1108.9C1967.3 1108.9 1937 1108.9 1937 1108.9Z" fill="#F57191"/>
<path d="M1854.5 1108.9C1854.5 1108.9 1891.7 1192.6 1855.1 1303.8C1871.8 1303.8 1903.5 1303.7 1903.5 1303.7C1903.5 1303.7 1943 1217.8 1903.5 1108.9C1884.7 1108.9 1854.5 1108.9 1854.5 1108.9Z" fill="#F57191"/>
<path d="M1663.2 1158.3H1495.8V1170.6H1663.2V1158.3Z" fill="#E3EAFF"/>
<path d="M1629.3 1242.4H1461.9V1254.7H1629.3V1242.4Z" fill="#E3EAFF"/>
<path d="M1689.5 1216.9H1522.1V1229.2H1689.5V1216.9Z" fill="#E3EAFF"/>
<path d="M970.6 1479.8L1837.6 1484.2L1838.5 1300.8L971.5 1296.4C957.3 1296.3 945.7 1307.8 945.6 1322L945 1454C944.9 1468.2 956.4 1479.8 970.6 1479.8Z" fill="#C4204A"/>
<path d="M1822.6 1451.5L2504.5 1450.8L2504.2 1337L1830.5 1330.7C1827.2 1330.7 1816.5 1340.1 1816.4 1342.7L1816.7 1446.5C1816.7 1449 1819.2 1451.5 1822.6 1451.5Z" fill="white"/>
<path d="M2521 1486C2531 1486.9 2539.4 1480.2 2541.1 1470.2C2542 1460.2 2535.4 1451.8 2525.3 1450C2523.6 1450 2522.8 1450 2521.1 1450L1845 1450.7C1837.5 1450.7 1830 1450.6 1822.5 1449.7C1820 1442.2 1818.4 1433.8 1819.3 1425.4L1818.8 1361.8C1818.8 1354.3 1818.9 1346.7 1820.6 1339.2C1829 1336.7 1837.3 1335.9 1845.7 1336.8L2521.8 1336.1C2531.8 1337 2540.2 1330.3 2541.9 1320.3C2542.8 1310.3 2536.2 1301.9 2526.1 1300.1C2524.4 1300.1 2523.6 1300.1 2521.9 1300.1L1794.9 1299.7C1784 1299.6 1774.8 1308.8 1774.8 1319.7L1774.9 1464.5C1774.8 1475.4 1784 1484.6 1794.8 1484.7L2521 1486Z" fill="#E62552"/>
<path d="M1669.9 1347.1H1030.6V1437H1669.9V1347.1Z" fill="#E62552"/>
<path d="M2223 1405.4H1857.9V1416.5H2223V1405.4Z" fill="#E3EAFF"/>
<path d="M2286.2 1374H1921.1V1385.1H2286.2V1374Z" fill="#E3EAFF"/>
<path d="M2030.9 1350.6H1874.2V1361.7H2030.9V1350.6Z" fill="#E3EAFF"/>
<path d="M2468.8 1425.8H2103.7V1436.9H2468.8V1425.8Z" fill="#E3EAFF"/>
<path d="M2010.6 1567.1L1944.4 1536.4L1884.6 1567.1V1405.2H2010.6V1567.1Z" fill="#C4204A"/>
<path d="M2314.7 748.5C2324 716.4 2320.7 685.6 2297.8 665.4C2274.6 644.9 2238.5 652.5 2238.5 652.5C2238.5 652.5 2212.7 636.6 2181.4 659.2C2150.2 681.7 2164.1 710.3 2149.5 728.5C2140.8 739.2 2109.1 735.1 2108.8 776.1C2108.7 787.9 2120.7 798.4 2132.1 801.6C2152.1 807.2 2172.6 803.4 2179.1 813C2200.7 844.5 2262.6 847.9 2276 826.1C2280.2 819.3 2331.1 844.9 2336.3 793.9C2338.9 768 2306.4 777.1 2314.7 748.5Z" fill="black"/>
<path d="M2305.3 943.8C2297.5 920 2266.9 838.1 2242.4 830.7C2212.9 821.8 2214.3 849.3 2217.8 865.3C2221.3 881.3 2263.6 963.1 2263.6 963.1L2305.3 943.8Z" fill="#2C2858"/>
<path d="M2461.4 1228.3L2478.4 1252.1C2478.4 1252.1 2493.6 1271.5 2511.8 1262.4C2529.9 1253.3 2521.9 1224.2 2521.9 1224.2L2501.1 1196.8L2461.4 1228.3Z" fill="#F37A50"/>
<path d="M2521.2 1221C2521.2 1221 2539.5 1220.8 2559.4 1214C2570.5 1210.2 2599.6 1199.2 2606.2 1219.1C2607.2 1222.1 2606.7 1226.2 2601.3 1232.6C2593.2 1241.9 2580.9 1252.2 2552 1261.2C2517.4 1271.9 2514.6 1278.1 2501.3 1281.3C2487.6 1284.7 2483 1265.6 2477.7 1250C2480.1 1253.3 2487.3 1261.4 2513.1 1256.6C2520.8 1255.3 2498.9 1231.1 2521.2 1221Z" fill="#2C2858"/>
<path d="M2334.1 1311V1327.2C2334.1 1327.2 2335.2 1351.8 2355.2 1355C2375.2 1358.1 2385.7 1329.8 2385.7 1329.8L2385 1304.3L2334.1 1311Z" fill="#F37A50"/>
<path d="M2233.7 783.4C2233.7 783.4 2230.1 816.2 2229 828.3L2184.9 829.6C2198.4 808.7 2192.3 749.2 2192.3 749.2L2233.7 783.4Z" fill="#F37A50"/>
<path d="M2188.8 734.1C2181.4 772.8 2200 808.9 2230.4 814.7C2260.8 820.5 2291.5 793.9 2298.9 755.2C2306.3 716.5 2287.7 680.4 2257.3 674.6C2226.9 668.8 2196.2 695.4 2188.8 734.1Z" fill="#F37A50"/>
<path d="M2281.9 758.6C2282 761.6 2284.5 763.9 2287.5 763.8C2290.5 763.7 2292.8 761.2 2292.7 758.2C2292.6 755.2 2290.1 752.9 2287.1 753C2284.1 753.1 2281.7 755.6 2281.9 758.6Z" fill="black"/>
<path d="M2239 750.7C2239.1 753.9 2241.8 756.4 2245 756.3C2248.2 756.2 2250.7 753.5 2250.6 750.3C2250.5 747.1 2247.8 744.6 2244.6 744.7C2241.4 744.8 2238.9 747.5 2239 750.7Z" fill="black"/>
<path d="M2235.2 743.6C2235.6 743.6 2236.1 743.4 2236.4 743.1C2241.7 738.6 2249.4 740.7 2249.4 740.7C2250.5 741 2251.6 740.4 2251.9 739.3C2252.2 738.2 2251.6 737.1 2250.5 736.8C2250.1 736.7 2240.6 734 2233.7 740C2232.9 740.7 2232.8 742 2233.5 742.9C2234 743.4 2234.6 743.7 2235.2 743.6Z" fill="black"/>
<path d="M2295.8 756.4C2296 756.4 2296.2 756.3 2296.5 756.3C2297.5 755.9 2298.1 754.7 2297.7 753.7C2294.6 745.6 2286.6 744.8 2286.3 744.7C2285.2 744.6 2284.2 745.4 2284.1 746.5C2284 747.6 2284.8 748.6 2285.9 748.7C2286.2 748.7 2291.7 749.4 2293.9 755.1C2294.1 755.9 2294.9 756.4 2295.8 756.4Z" fill="black"/>
<path d="M2273.9 767.9C2275.3 771.9 2276.4 775.8 2278.2 778.6C2278.8 779.5 2278.6 780.8 2277.7 781.5C2274 784.2 2266.5 784.5 2262.1 784.4C2261.5 784.4 2261.3 783.5 2261.9 783.3C2267.1 781.7 2269.8 780 2271.1 779C2271.7 778.5 2272.1 777.7 2272 776.9C2271.9 775 2271.8 771.2 2271.9 768.2C2272.1 767.1 2273.5 766.9 2273.9 767.9Z" fill="#DE623C"/>
<path d="M2201.9 740.3C2206.2 748.5 2204.3 758 2197.6 761.5C2190.9 765 2182 761.2 2177.6 753C2173.3 744.8 2175.2 735.3 2181.9 731.8C2188.6 728.3 2197.6 732.1 2201.9 740.3Z" fill="#F37A50"/>
<path d="M2190.1 756.2C2190.4 756.2 2190.7 756.1 2191 756C2195.1 753.8 2197.1 750 2196.3 746.1C2195.5 742 2192 738.8 2188.1 738.3C2187 738.2 2186 739 2185.9 740.1C2185.8 741.2 2186.6 742.2 2187.7 742.3C2189.9 742.5 2191.9 744.5 2192.4 746.8C2192.8 749 2191.7 751 2189.2 752.4C2188.2 752.9 2187.9 754.2 2188.4 755.2C2188.6 755.9 2189.4 756.3 2190.1 756.2Z" fill="#DE623C"/>
<path d="M2243.8 799.4C2230.5 793.4 2228.6 782.5 2228.5 782C2228.3 780.8 2229.2 779.6 2230.4 779.5C2231.6 779.3 2232.8 780.1 2232.9 781.4C2233 782 2235.5 795.8 2257.2 798.5C2258.4 798.7 2259.3 799.8 2259.1 801C2258.9 802.2 2257.8 803.1 2256.6 802.9C2251.5 802.2 2247.3 800.9 2243.8 799.4Z" fill="#DE623C"/>
<path d="M2189.5 730.7C2224.2 741.1 2285.1 728.5 2296.6 713.1C2299.6 689.7 2270.5 664.1 2247.2 665C2223.8 665.9 2187.4 698.6 2189.5 730.7Z" fill="black"/>
<path d="M2199.5 1097L2381.8 1089.2C2381.8 1089.2 2390.8 1043.7 2384 1025.7C2377.2 1007.7 2209.8 1011.4 2209.8 1011.4L2199.5 1097Z" fill="#3F964F"/>
<path d="M2145.8 980.2C2140.9 991.6 2121.6 1025.6 2123.5 1053.1C2125.4 1081.5 2145.5 1106.3 2179.4 1105.7C2179.4 1105.7 2243.4 1069.3 2229.5 994.8C2229.6 994.9 2196.1 981.8 2145.8 980.2Z" fill="#0E6A41"/>
<path d="M2174.4 1112.2L2335 1127.3C2335 1127.3 2390.1 1104.1 2389.8 1084.3C2389.5 1064.6 2227.7 1010.6 2227.7 1010.6C2132.7 983 2101.1 1100.7 2174.4 1112.2Z" fill="#0E6A41"/>
<path d="M2389.7 1084.4L2386.5 1310.9C2386.5 1310.9 2346.4 1327.8 2332.4 1311C2325.8 1234.1 2294.2 1166 2329.4 1119.2C2376.6 1056.4 2389.7 1084.4 2389.7 1084.4Z" fill="#0E6A41"/>
<path d="M2383.6 1025.1L2517.2 1208.6C2517.2 1208.6 2487.4 1248.5 2466.6 1243.8C2430.7 1198.3 2358 1145 2357.5 1087.8C2356.8 1011.2 2383.6 1025.1 2383.6 1025.1Z" fill="#3F964F"/>
<path d="M2190.6 814.1L2232.1 822.1C2247 850 2261.1 876.9 2261.1 893.8C2261.2 915.9 2230.8 1007.6 2230.8 1007.6C2190.9 1012.9 2158.3 1007.8 2133.7 991.8C2153 937.3 2120.1 870.1 2155.8 833.3C2164.5 824.1 2178.8 820 2190.6 814.1Z" fill="#37326E"/>
<path d="M2386.9 1326.7C2386.9 1326.7 2401.9 1337.2 2422 1343.3C2433.3 1346.7 2463.3 1354.6 2457.1 1374.6C2456.2 1377.6 2453.4 1380.7 2445.3 1382.7C2433.3 1385.6 2417.3 1386.8 2388.6 1377.3C2354.2 1365.9 2348.3 1369.2 2335.7 1364.2C2322.6 1359 2330 1340.8 2334.7 1325.1C2334.8 1329.2 2335.9 1339.9 2359.6 1351.1C2366.7 1354.3 2362.9 1321.9 2386.9 1326.7Z" fill="#2C2858"/>
<path d="M2139 851.9C2120.2 883.7 2092 985.4 2097.1 997.7L2143.3 989.3C2143.3 989.3 2186.5 892.2 2194.1 873C2207.2 839.9 2169.6 799.9 2139 851.9Z" fill="#2C2858"/>
<path d="M2440.6 958.6L2458.1 908.3L2365.7 937.9L2425.6 961.9L2440.6 958.6Z" fill="#8A284C"/>
<path d="M2438 953.9L2453.9 909.6L2449.8 905.6L2368.9 932.3L2438 953.9Z" fill="#F3DAD1"/>
<path d="M2439.1 956C2436.5 950.2 2425.7 941.3 2410.1 940.7C2394.5 940.1 2343 922.5 2339.8 919.9C2334.3 923.5 2234.5 987.2 2234.5 987.2L2237.3 994.5L2439.1 956Z" fill="white"/>
<path d="M2231.9 995L2233.6 999.4L2326.3 1021.1L2440.6 958.6L2438.9 954.3L2344.5 928.2L2231.9 995Z" fill="#8A284C"/>
<path d="M2233.6 999.4L2328 1025.4L2440.6 958.6L2346.2 932.6L2233.6 999.4Z" fill="#E62552"/>
<path d="M2393.6 909.9C2385.2 912.1 2370.6 923.9 2366.3 929.6L2372 931.4L2378.9 928.8C2386.5 928.4 2391 934.3 2406.2 930.3C2413.8 928.3 2418.4 928 2418.6 927C2418.8 926 2418.2 920.1 2409.1 922.4C2402.9 923.9 2399.6 924.9 2402.3 921.1L2427.8 912.7C2424.5 906.8 2405.4 906.7 2393.6 909.9Z" fill="#DE623C"/>
<path d="M2282.4 985.1C2275.6 986.3 2255.5 988.2 2241 991.7L2245.9 971.6C2256.7 971.7 2267.4 952.2 2288.7 948.1C2295.9 946.7 2299.2 945.5 2299.9 946.4C2300.6 947.3 2303.1 953.6 2292.7 956.1C2279.6 959.2 2289.7 968.8 2315.4 955.6C2321.9 952.3 2334.9 954.1 2330.9 959.6C2326.5 965.5 2313.4 979.5 2282.4 985.1Z" fill="#F37A50"/>
<path d="M2110.2 951.9C2098.7 956.8 2094.5 994.5 2098 997.1C2167.4 1023.6 2249.5 991 2249.5 991L2248.4 969.9C2248.4 970 2178.1 965.9 2110.2 951.9Z" fill="#2C2858"/>
<path d="M1338.8 954.7C1389.2 941.6 1317.1 1068.8 1317.1 1068.8C1317.1 1068.8 1314.1 1142.9 1293.1 1138.3C1293.1 1138.3 1254.1 1153.6 1256.7 1113.1C1259.1 1076.5 1290.1 967.4 1338.8 954.7Z" fill="#C4204A"/>
<path d="M1482.3 956.4L1483.4 1043.4C1483.4 1043.4 1491 1130.5 1509.5 1141.3C1522.6 1148.9 1557.5 1151.5 1554.8 1111C1552.4 1074.3 1540.4 969.5 1482.3 956.4Z" fill="#C4204A"/>
<path d="M1382.35 974.443H1429.85V943.843H1382.35V974.443Z" fill="#F37A50"/>
<path d="M1151.3 1527.5L1138.9 1565.1L1103.6 1537.6C1104.9 1536.5 1100.9 1511.5 1101.2 1497.1L1147.7 1495.5C1150.1 1510.3 1151.3 1527.5 1151.3 1527.5Z" fill="#F37A50"/>
<path d="M1092.5 1568.2C1092.5 1568.2 1080.3 1550.6 1066.4 1550.4C1066.4 1550.4 1040.4 1553.7 1032 1565.3C1029.4 1568.9 1031 1576.2 1032.4 1580.9C1033.3 1583.8 1036 1586.8 1043.9 1588.7C1055.5 1591.5 1071.1 1592.7 1098.9 1583.4C1132.3 1572.3 1138 1575.5 1150.3 1570.6C1163 1565.5 1157.8 1549.9 1153.2 1534.6C1153.2 1534.5 1145 1554.2 1092.5 1568.2Z" fill="#201D40"/>
<path d="M1100.3 1528C1100.3 1528 1085.8 1538.2 1066.2 1544.1C1055.3 1547.4 1026.1 1555.2 1032.2 1574.6C1033.1 1577.5 1035.8 1580.5 1043.7 1582.4C1055.3 1585.2 1070.9 1586.4 1098.7 1577.1C1132.1 1566 1137.8 1569.2 1150.1 1564.3C1162.8 1559.2 1155.6 1541.6 1151 1526.3C1150.9 1530.3 1149.8 1540.7 1126.8 1551.6C1119.9 1554.8 1123.6 1523.3 1100.3 1528Z" fill="#2C2858"/>
<path d="M1106.3 1551.4C1105.2 1551.4 1104.1 1550.7 1103.7 1549.5C1100.6 1540 1090.6 1540 1090.2 1540C1088.7 1540 1087.5 1538.8 1087.5 1537.4C1087.5 1535.9 1088.7 1534.7 1090.1 1534.7C1095.1 1534.6 1105.4 1537.2 1108.8 1547.9C1109.3 1549.3 1108.5 1550.8 1107.1 1551.3C1106.8 1551.4 1106.6 1551.4 1106.3 1551.4Z" fill="#494C7F"/>
<path d="M1094.2 1557.3C1093.1 1557.3 1092 1556.6 1091.6 1555.4C1088.5 1545.9 1078.5 1545.9 1078.1 1545.9C1076.6 1545.9 1075.4 1544.7 1075.4 1543.3C1075.4 1541.8 1076.6 1540.6 1078 1540.6C1083 1540.5 1093.3 1543.1 1096.7 1553.8C1097.2 1555.2 1096.4 1556.7 1095 1557.2C1094.7 1557.2 1094.4 1557.3 1094.2 1557.3Z" fill="#494C7F"/>
<path d="M1295.4 1201.8C1226.1 1221.1 1124.1 1276.6 1115.2 1287.9C1096.8 1311.2 1105.1 1376.1 1098.2 1520.7L1155 1519.2C1167.8 1407.7 1194.7 1364.4 1194.4 1322.4C1194.4 1322.4 1248.8 1321.2 1327.2 1282.4C1365.9 1263.3 1406 1241.4 1390.7 1206.3C1378.5 1178.4 1361.4 1183.4 1295.4 1201.8Z" fill="#201D40"/>
<path d="M1274.6 1552.1L1241.2 1571L1225.1 1544.4C1226.4 1543.3 1229.5 1516.9 1229.6 1502.5L1274.3 1506C1273 1520.6 1277.9 1537.9 1274.6 1552.1Z" fill="#F37A50"/>
<path d="M1369.4 1204.1C1288.5 1214.9 1229.6 1295.4 1223.2 1308.3C1210.1 1334.5 1229.6 1387.3 1221.6 1519.3L1281.3 1515.4C1290.4 1446.9 1305.1 1393.5 1304.4 1343.3C1304.4 1343.3 1346.8 1312.1 1432 1291.8C1478.6 1280.7 1492.5 1273.3 1501 1242.7C1503.9 1232.3 1502.7 1206.1 1498 1200.8C1476.9 1177.2 1424.8 1196.7 1369.4 1204.1Z" fill="#2C2858"/>
<path d="M1226.6 1582.9C1226.6 1582.9 1211 1568.2 1197.3 1571C1197.3 1571 1172.6 1579.7 1166.8 1592.8C1165 1596.9 1168.1 1603.7 1170.5 1607.9C1172 1610.5 1175.3 1612.9 1183.4 1613.1C1195.4 1613.4 1210.8 1611.2 1236.1 1596.3C1266.4 1578.4 1272.6 1580.4 1283.6 1573C1295 1565.3 1286.5 1551.2 1278.8 1537.2C1278.8 1537.2 1274.9 1558.1 1226.6 1582.9Z" fill="#201D40"/>
<path d="M1225.7 1541.9C1225.7 1541.9 1213.6 1555 1195.8 1564.9C1185.8 1570.4 1158.9 1584.2 1169 1601.9C1170.5 1604.5 1173.8 1606.9 1181.9 1607.1C1193.9 1607.4 1209.3 1605.2 1234.6 1590.3C1264.9 1572.4 1271.1 1574.4 1282.1 1567C1293.5 1559.3 1282.7 1543.6 1274.9 1529.7C1275.7 1533.6 1276.8 1544 1256.6 1559.5C1250.6 1564 1247.5 1532.5 1225.7 1541.9Z" fill="#2C2858"/>
<path d="M1241.8 1563.5C1240.7 1563.7 1239.5 1563.1 1239 1562C1234.6 1553 1224.7 1554.5 1224.3 1554.5C1222.8 1554.7 1221.5 1553.7 1221.2 1552.3C1221 1550.8 1222 1549.5 1223.4 1549.2C1228.3 1548.4 1238.9 1549.6 1243.8 1559.6C1244.5 1560.9 1243.9 1562.5 1242.6 1563.2C1242.4 1563.4 1242.1 1563.5 1241.8 1563.5Z" fill="#494C7F"/>
<path d="M1230.7 1571C1229.6 1571.2 1228.4 1570.6 1227.9 1569.5C1223.5 1560.5 1213.6 1562 1213.2 1562C1211.7 1562.2 1210.4 1561.2 1210.1 1559.8C1209.8 1558.4 1210.9 1557 1212.3 1556.7C1217.2 1555.9 1227.8 1557.1 1232.7 1567.1C1233.4 1568.4 1232.8 1570 1231.5 1570.7C1231.2 1570.9 1230.9 1571 1230.7 1571Z" fill="#494C7F"/>
<path d="M1482.3 956.4C1482.3 956.4 1450.8 949.2 1434.6 951.6C1404.8 976.7 1377.8 951.6 1377.8 951.6C1359.6 951 1338.8 954.7 1338.8 954.7C1338.8 1004.5 1306 1204.7 1306 1204.7C1306 1204.7 1329.3 1232.9 1406.1 1232.9C1452.6 1232.6 1504.6 1219.4 1504.6 1219.4C1504.6 1219.4 1482.3 1006 1482.3 956.4Z" fill="#E62552"/>
<path d="M1447.3 931.8C1473.1 934.9 1486.6 901.9 1486.6 901.9C1502.4 899.3 1499.7 883.6 1499.7 883.6C1507.2 881.3 1517.2 873.3 1514 859C1511.3 846.9 1499.4 847.5 1497.9 833.3C1496.7 821.9 1504.8 794 1468.5 791.9C1468.5 791.9 1467.6 770.7 1445.8 765.7C1419 759.5 1412.4 775.6 1400.7 778.5C1387.6 781.7 1359.4 769.7 1355.8 800C1355.8 800 1337.1 800.4 1328.5 814.1C1320.5 826.8 1325.2 843 1330.6 848.9C1330.6 848.9 1315.6 854 1312.2 868.2C1309.9 877.7 1313.6 890 1323.1 896C1329.1 899.8 1334.9 900.2 1334.9 900.2C1341 901.2 1341.4 917.6 1346.8 920.8C1355.5 925.9 1364.9 929.5 1374.4 932.3L1447.3 931.8Z" fill="#2C2858"/>
<path d="M1348.1 868.8C1345.1 913.3 1369.5 951.1 1402.6 953.3C1435.7 955.5 1464.9 921.2 1467.9 876.8C1470.9 832.3 1444.4 803.6 1411.3 801.4C1378.3 799.2 1351.1 824.4 1348.1 868.8Z" fill="#F37A50"/>
<path d="M1429.3 896.9C1432.8 897.1 1435.9 894.5 1436.1 891C1436.3 887.5 1433.7 884.4 1430.2 884.2C1426.7 884 1423.6 886.6 1423.4 890.1C1423.1 893.6 1425.7 896.6 1429.3 896.9Z" fill="black"/>
<path d="M1381.9 895.5C1385.4 895.7 1388.5 893.1 1388.7 889.6C1388.9 886.1 1386.3 883 1382.8 882.8C1379.3 882.6 1376.2 885.2 1376 888.7C1375.8 892.2 1378.4 895.3 1381.9 895.5Z" fill="black"/>
<path d="M1399.5 896C1392.8 903.7 1390.9 906.7 1388.3 909.3C1392.1 916 1404.2 916.8 1407.2 915.3C1398.5 913.3 1396.1 908.3 1396.1 908.3L1399.5 896Z" fill="#DE623C"/>
<path d="M1457.3 884.2C1451.1 893.4 1451.7 904.6 1458.5 909.2C1465.3 913.8 1475.9 910 1482.1 900.8C1488.3 891.6 1487.7 880.4 1480.9 875.8C1474 871.2 1463.5 875 1457.3 884.2Z" fill="#F37A50"/>
<path d="M1463.4 901.7C1463.7 901.7 1463.9 901.7 1464.2 901.6C1465.3 901.2 1465.8 900.1 1465.5 899C1464.3 895.5 1464.4 892.7 1466 890.8C1468.4 887.8 1473.5 887.2 1477.2 887.6C1478.3 887.7 1479.3 886.9 1479.4 885.8C1479.5 884.7 1478.7 883.7 1477.6 883.6C1472.7 883.1 1466.2 884.1 1462.8 888.4C1461.1 890.5 1459.6 894.4 1461.7 900.5C1461.9 901.1 1462.6 901.6 1463.4 901.7Z" fill="#DE623C"/>
<path d="M1489 845.2L1418.2 785.8L1338 824.7L1346.7 882.1C1349.2 855.7 1365.3 864.5 1373.8 857C1382.4 849.3 1386.4 837.2 1406.1 848.4C1406.1 848.4 1422.5 837.6 1430.5 853.4C1436.7 865.7 1445.5 863.5 1454.2 864.3C1464.4 865.3 1461.8 875.2 1468.1 875L1489 845.2Z" fill="#2C2858"/>
<path d="M1373 879.7C1373.7 879.7 1374.3 879.5 1374.8 879C1380.2 874.2 1388.1 877.4 1388.2 877.5C1389.6 878.1 1391.3 877.4 1391.9 876C1392.5 874.6 1391.8 872.9 1390.4 872.3C1389.9 872.1 1379.2 867.7 1371.1 874.8C1369.9 875.8 1369.8 877.6 1370.8 878.8C1371.5 879.3 1372.2 879.7 1373 879.7Z" fill="#2C2858"/>
<path d="M1441.5 883.1C1442.2 883.1 1442.8 882.9 1443.4 882.4C1444.6 881.4 1444.7 879.6 1443.6 878.4C1435.5 869.3 1424 874 1423.5 874.2C1422.1 874.8 1421.4 876.5 1422 877.9C1422.6 879.3 1424.3 880 1425.7 879.4C1426.1 879.2 1434 876 1439.4 882.1C1440 882.8 1440.7 883.1 1441.5 883.1Z" fill="#2C2858"/>
<path d="M1401.4 932.9C1411.5 932.9 1419.8 927.3 1419.9 927.2C1421 926.5 1421.2 925 1420.5 923.9C1419.8 922.8 1418.3 922.6 1417.2 923.3C1416.5 923.8 1400.7 934.4 1387.7 922.9C1386.7 922 1385.3 922.1 1384.4 923.1C1383.5 924.1 1383.6 925.5 1384.6 926.4C1390.2 931.3 1396.1 932.9 1401.4 932.9Z" fill="#DE623C"/>
<path d="M1469.7 1118.7C1453.2 1106.2 1431.9 1087.3 1425.9 1078.5C1425.9 1078.5 1445 1060.4 1450.3 1061C1468.5 1076.8 1569.3 1096.8 1534 1141C1523.9 1153.5 1493.9 1137 1469.7 1118.7Z" fill="#DE623C"/>
<path d="M1325.9 1108.2C1331.7 1090 1328.4 1077.6 1334.3 1068.8C1334.3 1068.8 1317.6 1046.4 1315 1051.6C1305.1 1071.7 1233.9 1115.7 1266 1142C1278.6 1152.2 1316.6 1137 1325.9 1108.2Z" fill="#DE623C"/>
<path d="M1438.4 1001L1429.4 998.9C1396.3 1009.4 1355.8 1001.9 1344.5 1026V1040.3L1438.4 1001Z" fill="white"/>
<path d="M1444.5 1107.4L1364.6 1132.3L1354 1028.8L1441.2 998.9L1444.5 1107.4Z" fill="#3F964F"/>
<path d="M1262.4 1001L1271.4 998.9C1304.5 1009.4 1333.2 1001.9 1344.4 1026V1040.3L1262.4 1001Z" fill="#E9EDF2"/>
<path d="M1279.9 1107.4L1345.6 1132.3L1335 1028.8L1259.6 998.9L1279.9 1107.4Z" fill="#3F964F"/>
<path d="M1344.9 1133.5C1351.4 1137.5 1358.2 1137.5 1365.3 1133.5L1354.7 1027C1347.9 1030 1341.1 1030 1334.3 1027L1344.9 1133.5Z" fill="#0E6A41"/>
<path d="M1431.3 1085.8C1428.7 1083.5 1423.5 1075.6 1431.7 1076C1421.1 1073.1 1418.5 1064.6 1431.9 1063.7C1422.3 1062.9 1416.9 1052.4 1433.1 1050.5C1423.9 1049.2 1420.3 1040.3 1429.4 1038.6C1439 1036.8 1453.4 1033.5 1458.8 1038.6C1463.1 1042.6 1460.5 1047.4 1456.2 1049.7C1464.7 1053.1 1463.7 1063.8 1453.2 1065.2C1457.2 1067.4 1458.7 1072.4 1456.6 1076.5C1454.3 1081 1448.9 1082.8 1444.4 1080.7C1447.7 1083.2 1448.9 1088.4 1445.4 1090.1C1440.8 1092.1 1434.1 1088.3 1431.3 1085.8Z" fill="#F37A50"/>
<path d="M1281.4 1068.2C1284 1065.9 1289.2 1058 1281 1058.4C1291.6 1055.5 1294.2 1047 1280.8 1046.1C1290.4 1045.3 1295.8 1034.8 1279.6 1032.9C1288.8 1031.6 1292.3 1022.7 1283.3 1021C1273.7 1019.2 1259.3 1015.9 1253.9 1021C1249.6 1025 1252.2 1029.8 1256.5 1032.1C1248 1035.5 1249 1046.2 1259.5 1047.6C1255.5 1049.8 1254 1054.8 1256.1 1058.9C1258.4 1063.4 1263.8 1065.2 1268.3 1063.1C1265 1065.6 1263.8 1070.8 1267.3 1072.5C1272 1074.6 1278.7 1070.8 1281.4 1068.2Z" fill="#F37A50"/>
<path d="M1681.6 1089.2H1663.8C1661 1089.2 1658.7 1086.9 1658.7 1084.1C1658.7 1081.3 1661 1079 1663.8 1079H1676.5V1045.5H1663.8C1661 1045.5 1658.7 1043.2 1658.7 1040.4C1658.7 1037.6 1661 1035.3 1663.8 1035.3H1681.6C1684.4 1035.3 1686.7 1037.6 1686.7 1040.4V1084.2C1686.7 1086.9 1684.4 1089.2 1681.6 1089.2Z" fill="#E3EAFF"/>
<path d="M1658.7 1109.5H1601.8C1599 1109.5 1596.8 1107.2 1596.8 1104.5V1019.9C1596.8 1017.1 1599.1 1014.9 1601.8 1014.9H1658.7C1661.5 1014.9 1663.7 1017.2 1663.7 1019.9V1104.5C1663.8 1107.2 1661.5 1109.5 1658.7 1109.5Z" fill="#E3EAFF"/>
<path d="M1623.8 1005.9C1623.8 1005.9 1602.2 997.1 1608.9 981.2C1615.6 965.3 1639.9 967.4 1626.1 944.4C1642.8 953.6 1645.3 974.1 1632.3 979.1C1619.3 984.2 1618.6 996.9 1623.8 1005.9Z" fill="white"/>
<path d="M1644.1 1005.9C1644.1 1005.9 1628.7 999.7 1633.5 988.4C1638.3 977.1 1655.6 978.6 1645.7 962.2C1657.6 968.7 1659.4 983.3 1650.1 986.9C1640.9 990.4 1640.4 999.5 1644.1 1005.9Z" fill="white"/>
<path d="M2924.6 1243.1C2907.2 1261.9 2873.2 1266.4 2873.2 1266.4C2873.2 1266.4 2871.7 1229 2889.2 1210.2C2906.6 1191.4 2928.7 1183.6 2938.5 1192.7C2948.2 1201.7 2942 1224.3 2924.6 1243.1Z" fill="#95A6DB"/>
<path d="M2852.4 1248.8C2857.1 1274 2840.4 1303.9 2840.4 1303.9C2840.4 1303.9 2809.5 1282.7 2804.9 1257.6C2800.2 1232.4 2807.1 1210 2820.2 1207.6C2833.4 1205.1 2847.8 1223.6 2852.4 1248.8Z" fill="#95A6DB"/>
<path d="M2800.2 1368.7C2798.5 1372.8 2797.1 1375.6 2796.7 1376.3C2796.7 1376.4 2796.6 1376.5 2796.6 1376.5L2796.5 1376.4C2796.2 1376.2 2795.2 1375.5 2793.7 1374.4C2785.8 1368.6 2764.4 1351.2 2760.2 1330.8C2755.1 1305.7 2761.5 1283.2 2774.6 1280.5C2787.7 1277.8 2802.5 1296 2807.6 1321.1C2809.9 1332.3 2807.9 1344.6 2805.1 1354.7C2803.6 1360.2 2801.8 1365 2800.2 1368.7Z" fill="#95A6DB"/>
<path d="M2891.1 1328.6C2865.5 1327.2 2840.4 1303.9 2840.4 1303.9C2840.4 1303.9 2868.3 1278.9 2893.8 1280.4C2919.4 1281.8 2939.5 1293.8 2938.7 1307.2C2938 1320.4 2916.7 1330.1 2891.1 1328.6Z" fill="#95A6DB"/>
<path d="M2847.3 1393.9C2821.7 1395.1 2794.3 1374.6 2794.3 1374.6C2794.3 1374.6 2819.4 1346.8 2845 1345.6C2870.6 1344.4 2891.8 1354.2 2892.5 1367.5C2893.1 1380.8 2872.9 1392.7 2847.3 1393.9Z" fill="#95A6DB"/>
<path d="M2882.5 1260C2882.2 1260.2 2855 1284.2 2810 1360.6C2806.7 1366.2 2803.3 1372.1 2799.8 1378.2L2799.4 1378L2796.6 1376.4L2796.5 1376.3C2796.2 1376.1 2795.2 1375.4 2793.7 1374.3C2797.6 1367.4 2801.4 1360.8 2805.1 1354.6C2850 1278.8 2876.6 1255.5 2877.8 1254.4L2882.5 1260Z" fill="#95A6DB"/>
<path d="M254.1 858.8C261.2 883.4 247.5 914.9 247.5 914.9C247.5 914.9 214.7 896.9 207.6 872.2C200.5 847.6 205.2 824.6 218 820.9C230.8 817.2 247 834.2 254.1 858.8Z" fill="#95A6DB"/>
<path d="M225.5 924.9C247.6 933.2 263.4 960.7 263.4 960.7C263.4 960.7 232 975.1 209.8 966.7C187.7 958.4 173.2 942.3 177.6 930.8C181.9 919.3 203.4 916.6 225.5 924.9Z" fill="#95A6DB"/>
<path d="M297.6 1030.2C300.2 1033.8 301.9 1036.4 302.3 1037.1C302.4 1037.2 302.4 1037.2 302.4 1037.3L302.3 1037.4C301.9 1037.6 300.8 1038.1 299.1 1038.8C290 1042.6 264.1 1051.9 244.5 1045C220.4 1036.5 204.4 1019.3 208.9 1006.7C213.4 994.1 236.5 990.8 260.7 999.4C271.5 1003.2 281 1011.2 288.2 1018.9C292 1022.9 295.3 1026.9 297.6 1030.2Z" fill="#95A6DB"/>
<path d="M318.599 1084.2C322.699 1087.1 325.399 1089.2 325.999 1089.8C326.099 1089.9 326.099 1089.9 326.199 1089.9L326.099 1090C325.799 1090.3 324.799 1091.2 323.199 1092.6C314.899 1099.8 290.699 1119.1 267.399 1118.7C238.699 1118.2 215.599 1105.7 215.799 1090.8C215.999 1075.8 239.499 1064 268.199 1064.5C280.999 1064.7 293.999 1069.8 304.399 1075.4C309.999 1078.5 314.899 1081.6 318.599 1084.2Z" fill="#95A6DB"/>
<path d="M341.199 1142.9C345.699 1144.9 348.699 1146.6 349.499 1147C349.599 1147 349.699 1147.1 349.699 1147.1L349.599 1147.2C349.299 1147.6 348.499 1148.7 347.299 1150.3C340.599 1158.9 320.499 1182.1 297.699 1186C269.599 1190.9 244.799 1182.9 242.299 1168.3C239.799 1153.7 260.499 1137.8 288.499 1133C301.099 1130.8 314.599 1133.4 325.799 1137C331.799 1138.9 337.099 1141.1 341.199 1142.9Z" fill="#95A6DB"/>
<path d="M310.2 931.6C295.8 952.8 262.8 962.3 262.8 962.3C262.8 962.3 255.8 925.5 270.2 904.4C284.6 883.2 305.3 872.2 316.3 879.7C327.3 887.2 324.6 910.4 310.2 931.6Z" fill="#95A6DB"/>
<path d="M343.5 1002.8C331.4 1025.4 299.6 1038.3 299.6 1038.3C299.6 1038.3 288.8 1002.5 300.9 979.9C313 957.3 332.4 944.2 344.2 950.5C355.9 956.8 355.6 980.2 343.5 1002.8Z" fill="#95A6DB"/>
<path d="M376 1069.5C358.1 1087.8 324 1091.4 324 1091.4C324 1091.4 323.6 1054 341.5 1035.7C359.4 1017.4 381.7 1010.2 391.2 1019.5C400.7 1028.8 393.9 1051.2 376 1069.5Z" fill="#95A6DB"/>
<path d="M246.899 903.6C246.999 904 253.499 939.6 295.699 1017.6C298.799 1023.3 359.299 1145.7 362.799 1151.9L355.699 1168.3C351.799 1161.4 291.599 1025.1 288.199 1018.7C246.399 941.1 240.099 906.3 239.899 904.8L246.899 903.6Z" fill="#95A6DB"/>
</g>
<defs>
<clipPath id="clip0">
<rect width="2967" height="1765.2" fill="white"/>
</clipPath>
</defs>
</svg>
