<svg width="364" height="148" viewBox="0 0 364 148" fill="none" xmlns="http://www.w3.org/2000/svg">
<path opacity="0.5" d="M363.4 144.1L333.7 141.6C333 139.8 324.9 138.4 315 138.4C304.6 138.4 296.2 139.9 296.2 141.8C296.2 143.7 304.6 145.2 315 145.2C319.9 145.2 324.4 144.8 327.7 144.3C329 144.1 330.1 143.8 331 143.6L363.4 147.7V144.1Z" fill="url(#paint0_linear)"/>
<path d="M331.6 140.2C329.5 138.7 322.2 137.6 313.4 137.6C304.6 137.6 297.3 138.7 295.2 140.2L294.6 139.6V141C294.6 142.9 303 144.4 313.4 144.4C323.8 144.4 332.2 142.9 332.2 141V139.6L331.6 140.2Z" fill="#282A44"/>
<path d="M332.2 139.6C332.2 139.9 332 140.2 331.6 140.5C330.7 141.1 328.7 141.7 326.1 142.2C322.8 142.8 318.3 143.1 313.4 143.1C303 143.1 294.6 141.6 294.6 139.7C294.6 137.8 303 136.3 313.4 136.3C323.8 136.1 332.2 137.7 332.2 139.6Z" fill="#282A44"/>
<path opacity="0.8" d="M331.6 140.4C330.7 141 328.7 141.6 326.1 142.1L311.6 140.2L314.2 139.2L331.6 140.4Z" fill="#282A44"/>
<path d="M310.3 129.4V139.7C310.3 140 311.7 140.3 313.3 140.3C314.9 140.3 316.3 140 316.3 139.7V129.4H310.3Z" fill="#282A44"/>
<path d="M316.4 129.4C316.4 129.7 315 130 313.4 130C311.7 130 310.4 129.7 310.4 129.4C310.4 129.1 311.8 128.8 313.4 128.8C315 128.8 316.4 129.1 316.4 129.4Z" fill="#282A44"/>
<path d="M316.1 93.1V129.4H310.6V93.1C310.6 91.6 311.8 90.3 313.4 90.3C313.8 90.3 314.2 90.4 314.5 90.5C314.8 90.6 315.1 90.8 315.4 91.1C315.8 91.6 316.1 92.3 316.1 93.1Z" fill="#DEA775"/>
<path d="M316.1 93.1V129.4H314.4V90.6C314.7 90.7 315 90.9 315.3 91.2C315.8 91.6 316.1 92.3 316.1 93.1Z" fill="#CE986B"/>
<path d="M323.2 36.1C323.2 36.2 323.2 36.3 323.2 36.4L315.7 97.7C315.6 98.8 314.7 99.7 313.7 100C313.5 100.1 313.2 100.1 313 100.1C311.4 100.1 310.1 98.7 310.3 97L317.8 35.7C318 34.3 319.1 33.3 320.5 33.3C321 33.3 321.4 33.4 321.8 33.6C322.6 34.2 323.2 35.1 323.2 36.1Z" fill="#FDCE93"/>
<path d="M323.2 36.0999C323.2 36.1999 323.2 36.3 323.2 36.4L315.7 97.6999C315.6 98.7999 314.7 99.7 313.7 100L321.8 33.7C322.6 34.2 323.2 35.0999 323.2 36.0999Z" fill="#EAB883"/>
<path d="M322 36.9C322 37.4 321.8 37.8 321.4 38.1C320.9 38.5 320.1 38.6 319.5 38.2L270.2 4.79996C269.8 4.49996 269.5 3.99996 269.5 3.49996C269.5 3.29996 269.5 3.19996 269.6 2.99996C269.8 2.29996 270.4 1.89996 271.1 1.89996C271.4 1.89996 271.7 1.99996 272 2.19996L321.3 35.5C321.7 35.9 322 36.3 322 36.9Z" fill="#E0A171"/>
<path d="M321.4 38.1C320.9 38.5 320.1 38.6 319.5 38.2L270.2 4.8C269.8 4.5 269.5 4 269.5 3.5C269.5 3.3 269.5 3.2 269.6 3L321.4 38.1Z" fill="#CC8F66"/>
<path opacity="0.53" d="M0 142.7L244.1 9L255.2 20.2L266.1 31L282.1 142.7H0Z" fill="url(#paint1_linear)"/>
<path d="M271.5 9.09997C269.4 13.1 268.2 15.3 268.2 15.3L257.6 4.79997C257.6 4.79997 259.8 3.59997 263.8 1.49997C267.1 -0.200029 269.4 -0.600029 271.5 1.49997C271.8 1.79997 272 2.09997 272.2 2.39997C273.5 4.19997 273 6.29997 271.5 9.09997Z" fill="#282A44"/>
<path d="M271.5 9.09996C269.4 13.1 268.2 15.3 268.2 15.3L267.3 14.4C268.2 12.6 269.7 9.79996 271.1 7.29996C272.8 4.19996 272.4 2.69996 272.3 2.39996C273.5 4.19996 273 6.29996 271.5 9.09996Z" fill="#5B2C0C"/>
<path opacity="0.55" d="M271.5 1.49995L271.4 1.39995C269.8 -0.300045 259.8 6.99995 259.8 6.99995L261.2 8.39995C261.2 8.29995 270.3 0.499955 271.5 1.49995Z" fill="white"/>
<path d="M269.1 22.2L266.1 28.8L264.9 27.6L244.1 6.79996L250.7 3.79996C254.2 2.19996 258.4 2.99996 261.1 5.69996L266.9 11.5L267.1 11.7C269.9 14.5 270.7 18.7 269.1 22.2Z" fill="#282A44"/>
<path opacity="0.75" d="M262.5 7.09995L261.7 6.29995C260.8 5.39995 259.1 5.59995 256 6.89995C252.8 8.19995 248.1 10.8 248.1 10.8L250.3 13C250.3 13 255.2 9.49995 257.1 8.29995C260.7 6.09995 262.5 7.09995 262.5 7.09995Z" fill="white"/>
<path d="M269.1 22.2L266.1 28.8L264.9 27.6C265.9 25.5 267.1 22.7 268.2 20.2C270.1 15.4 266.9 11.5 266.9 11.5L267.1 11.7C269.9 14.5 270.7 18.7 269.1 22.2Z" fill="#282A44"/>
<path d="M320.4 38.0999C321.063 38.0999 321.6 37.5627 321.6 36.9C321.6 36.2372 321.063 35.7 320.4 35.7C319.737 35.7 319.2 36.2372 319.2 36.9C319.2 37.5627 319.737 38.0999 320.4 38.0999Z" fill="#B77E56"/>
<path d="M313.3 96.7C314.294 96.7 315.1 95.8941 315.1 94.9C315.1 93.9059 314.294 93.1 313.3 93.1C312.306 93.1 311.5 93.9059 311.5 94.9C311.5 95.8941 312.306 96.7 313.3 96.7Z" fill="#B77E56"/>
<defs>
<linearGradient id="paint0_linear" x1="338.706" y1="144.17" x2="405.556" y2="150.772" gradientUnits="userSpaceOnUse">
<stop stop-color="#3F3125" stop-opacity="0.8"/>
<stop offset="1" stop-color="#3F3125" stop-opacity="0"/>
</linearGradient>
<linearGradient id="paint1_linear" x1="243.122" y1="-98.4142" x2="143.341" y2="137.328" gradientUnits="userSpaceOnUse">
<stop stop-color="#FFF5D1" stop-opacity="0.8"/>
<stop offset="0.0240182" stop-color="#FFF5D3" stop-opacity="0.7808"/>
<stop offset="0.3875" stop-color="#EBD512"/>
<stop offset="0.7225" stop-color="#FFFEFA" stop-opacity="0.222"/>
<stop offset="1" stop-color="white" stop-opacity="0"/>
</linearGradient>
</defs>
</svg>
