<svg width="0" height="0" class="hidden">
  <symbol fill=")" xmlns="http://www.w3.org/2000/svg" viewBox="0 0 24 24" id="facebook">
    <path d="M20 3H4a1 1 0 00-1 1v16a1 1 0 001 1h8.615v-6.96h-2.338v-2.725h2.338v-2c0-2.325 1.42-3.592 3.5-3.592.699-.002 1.399.034 2.095.107v2.42h-1.435c-1.128 0-1.348.538-1.348 1.325v1.735h2.697l-.35 2.725h-2.348V21H20a1 1 0 001-1V4a1 1 0 00-1-1z" fill=""></path>
  </symbol>
  <symbol fill="" xmlns="http://www.w3.org/2000/svg" viewBox="0 0 24 24" id="instagram">
    <path d="M20.947 8.305a6.531 6.531 0 00-.419-2.216 4.61 4.61 0 00-2.633-2.633 6.606 6.606 0 00-2.186-.42c-.962-.043-1.267-.055-3.709-.055s-2.755 0-3.71.055a6.606 6.606 0 00-2.185.42 4.607 4.607 0 00-2.633 2.633 6.554 6.554 0 00-.419 2.185c-.043.963-.056 1.268-.056 3.71s0 2.754.056 3.71c.015.748.156 1.486.42 2.187a4.61 4.61 0 002.633 2.632 6.586 6.586 0 002.185.45c.963.043 1.268.056 3.71.056s2.755 0 3.71-.056a6.593 6.593 0 002.186-.419 4.616 4.616 0 002.633-2.633c.263-.7.404-1.438.42-2.187.042-.962.055-1.267.055-3.71-.002-2.442-.002-2.752-.058-3.709zm-8.953 8.297a4.622 4.622 0 01-4.623-4.623 4.622 4.622 0 114.623 4.623zm4.807-8.339a1.077 1.077 0 110-2.156 1.077 1.077 0 010 2.156z" fill=""></path>
    <path d="M11.994 14.982a3.003 3.003 0 100-6.006 3.003 3.003 0 000 6.006z" fill=""></path>
  </symbol>
  <symbol fill="" xmlns="http://www.w3.org/2000/svg" viewBox="0 0 24 24" id="twitter">
    <path d="M19.633 7.997c.013.175.013.349.013.523 0 5.325-4.053 11.461-11.46 11.461-2.282 0-4.402-.661-6.186-1.809.324.037.636.05.973.05a8.07 8.07 0 005.001-1.721 4.036 4.036 0 01-3.767-2.793c.249.037.499.062.761.062.361 0 .724-.05 1.061-.137a4.026 4.026 0 01-3.23-3.953v-.05c.537.299 1.16.486 1.82.511a4.021 4.021 0 01-1.796-3.354c0-.748.199-1.434.548-2.032a11.457 11.457 0 008.306 4.215c-.062-.3-.1-.611-.1-.923a4.024 4.024 0 014.028-4.028c1.16 0 2.207.486 2.943 1.272a7.957 7.957 0 002.556-.973c-.3.93-.93 1.72-1.771 2.22a8.073 8.073 0 002.319-.624 8.646 8.646 0 01-2.019 2.083z" fill=""></path>
  </symbol>
</svg>