<svg width="0" height="0" class="hidden">
  <symbol viewBox="0 0 24 24" fill="" xmlns="http://www.w3.org/2000/svg" id="home">
    <path d="M22.184 11.836l-9.057-9.052-.607-.607a.738.738 0 0 0-1.04 0l-9.664 9.659a1.498 1.498 0 0 0-.44 1.078c.01.825.696 1.484 1.52 1.484h.997v7.633h16.214v-7.633h1.017c.401 0 .778-.157 1.062-.441a1.49 1.49 0 0 0 .438-1.062c0-.398-.157-.775-.44-1.06zm-8.872 8.508h-2.624v-4.782h2.624v4.782zm5.107-7.634v7.634h-3.607V15a.937.937 0 0 0-.937-.938h-3.75a.937.937 0 0 0-.938.938v5.344H5.58V12.71H3.33l8.672-8.665.542.542 8.128 8.123h-2.253z" fill=""></path>
  </symbol>
  <symbol viewBox="0 0 24 24" fill="" xmlns="http://www.w3.org/2000/svg" id="notification">
    <path d="M21.673 18.553A9.605 9.605 0 0 1 20 16.6a8.42 8.42 0 0 1-.9-3.207V10.1a7.207 7.207 0 0 0-6.293-7.167v-.86a.89.89 0 0 0-1.78 0v.874a7.207 7.207 0 0 0-6.22 7.153v3.293a8.42 8.42 0 0 1-.9 3.207 9.601 9.601 0 0 1-1.647 1.953.666.666 0 0 0-.227.5v.907a.667.667 0 0 0 .667.667h18.533a.667.667 0 0 0 .667-.667v-.907a.666.666 0 0 0-.227-.5zm-18.253.74c.62-.599 1.166-1.27 1.627-2a9.494 9.494 0 0 0 1.1-3.9V10.1a5.827 5.827 0 1 1 11.646 0v3.293a9.494 9.494 0 0 0 1.1 3.9c.46.73 1.007 1.401 1.627 2H3.42zm8.58 3.56a1.78 1.78 0 0 0 1.72-1.52h-3.507A1.78 1.78 0 0 0 12 22.853z" fill=""></path>
  </symbol>
  <symbol viewBox="0 0 24 24" fill="" xmlns="http://www.w3.org/2000/svg" id="notification-red">
    <path d="M21.673 18.553A9.605 9.605 0 0 1 20 16.6a8.42 8.42 0 0 1-.9-3.207V10.1a7.207 7.207 0 0 0-6.293-7.167v-.86a.89.89 0 0 0-1.78 0v.874a7.207 7.207 0 0 0-6.22 7.153v3.293a8.42 8.42 0 0 1-.9 3.207 9.601 9.601 0 0 1-1.647 1.953.666.666 0 0 0-.227.5v.907a.667.667 0 0 0 .667.667h18.533a.667.667 0 0 0 .667-.667v-.907a.666.666 0 0 0-.227-.5zm-18.253.74c.62-.599 1.166-1.27 1.627-2a9.494 9.494 0 0 0 1.1-3.9V10.1a5.827 5.827 0 1 1 11.646 0v3.293a9.494 9.494 0 0 0 1.1 3.9c.46.73 1.007 1.401 1.627 2H3.42zm8.58 3.56a1.78 1.78 0 0 0 1.72-1.52h-3.507A1.78 1.78 0 0 0 12 22.853z" fill=""></path>
    <ellipse cx="17.333" cy="5.333" rx="2.667" ry="2.667" fill="red"></ellipse>
  </symbol>
  <symbol viewBox="0 0 24 24" fill="" xmlns="http://www.w3.org/2000/svg" id="search-alt">
    <path d="M10 18a7.952 7.952 0 0 0 4.897-1.688l4.396 4.396 1.414-1.414-4.396-4.396A7.952 7.952 0 0 0 18 10c0-4.411-3.589-8-8-8s-8 3.589-8 8 3.589 8 8 8zm0-14c3.309 0 6 2.691 6 6s-2.691 6-6 6-6-2.691-6-6 2.691-6 6-6z" fill=""></path>
    <path d="M11.412 8.586c.379.38.588.882.588 1.414h2a3.977 3.977 0 0 0-1.174-2.828c-1.514-1.512-4.139-1.512-5.652 0l1.412 1.416c.76-.758 2.07-.756 2.826-.002z" fill=""></path>
  </symbol>
  <symbol viewBox="0 0 24 24" fill="" xmlns="http://www.w3.org/2000/svg" id="settings">
    <path d="M12.067 7.333A4.638 4.638 0 0 0 7.4 12c0 2.6 2.067 4.667 4.667 4.667 2.6 0 4.666-2.067 4.666-4.667 0-2.6-2.066-4.667-4.666-4.667zm0 8A3.3 3.3 0 0 1 8.733 12a3.3 3.3 0 0 1 3.334-3.333A3.3 3.3 0 0 1 15.4 12a3.3 3.3 0 0 1-3.333 3.333z" fill=""></path>
    <path d="M21.867 9.8L20 9.2l-.4-1 .933-1.733c.2-.4.134-.934-.2-1.267l-1.6-1.6a1.121 1.121 0 0 0-1.266-.2l-1.734.933-1-.4-.6-1.866c-.133-.4-.533-.734-1-.734h-2.266a.935.935 0 0 0-.934.8L9.333 4c-.4.067-.733.2-1.066.4l-1.734-.933c-.4-.2-.933-.134-1.266.2l-1.6 1.6c-.334.333-.4.866-.2 1.266L4.333 8.2c-.133.333-.266.733-.4 1.067l-1.866.6c-.4.133-.734.533-.734 1v2.266c0 .467.334.867.8 1l1.867.6.4 1-.933 1.734c-.2.4-.134.933.2 1.266l1.6 1.6c.333.334.866.4 1.266.2l1.734-.933 1 .4.6 1.933c.133.4.533.734 1 .734h2.266c.467 0 .867-.334 1-.734l.6-1.933 1-.4 1.734.933c.4.2.933.134 1.266-.2l1.6-1.6c.334-.333.4-.866.2-1.266l-.933-1.734.4-1 1.933-.6c.4-.133.734-.533.734-1v-2.266c0-.467-.334-.934-.8-1.067zm-.534 3.133l-2.4.734-.066.333-.6 1.4-.2.333 1.2 2.2-1.334 1.334-2.2-1.2-.333.2a6.337 6.337 0 0 1-1.4.6l-.333.066-.734 2.4h-1.866l-.734-2.4-.333-.066-1.4-.6-.333-.2-2.2 1.2-1.334-1.334 1.2-2.2-.2-.333a6.33 6.33 0 0 1-.6-1.4l-.066-.333-2.4-.734v-1.866l2.266-.667.134-.333c.133-.534.333-1 .6-1.467l.2-.333-1.134-2.2 1.334-1.334 2.133 1.2.333-.2a5.66 5.66 0 0 1 1.467-.6L10.333 5l.734-2.333h1.866L13.667 5l.333.133c.467.134.933.334 1.4.6l.333.2 2.2-1.2 1.334 1.334-1.2 2.2.2.333c.266.467.466.933.6 1.4l.066.333 2.4.734v1.866z" fill=""></path>
  </symbol>
  <symbol viewBox="0 0 24 24" fill="" xmlns="http://www.w3.org/2000/svg" id="user">
    <path clip-rule="evenodd" d="M12 2.857a3.429 3.429 0 0 0-3.429 3.429v1.143a3.429 3.429 0 1 0 6.858 0V6.286A3.429 3.429 0 0 0 12 2.857zm-8 16v-.832C4 14.383 8.213 12 12 12s8 2.383 8 6.025v.832A1.143 1.143 0 0 1 18.857 20H5.143A1.143 1.143 0 0 1 4 18.857z" stroke="" stroke-linecap="round" stroke-linejoin="round"></path>
  </symbol>
  <symbol viewBox="0 0 24 24" fill="" xmlns="http://www.w3.org/2000/svg" id="users">
    <path clip-rule="evenodd" d="M14.286 2.857a3.429 3.429 0 0 0-3.429 3.429v1.143a3.429 3.429 0 0 0 6.857 0V6.286a3.428 3.428 0 0 0-3.428-3.429zm-8 16v-.832c0-3.642 4.212-6.025 8-6.025 3.787 0 8 2.383 8 6.025v.832A1.143 1.143 0 0 1 21.143 20H7.429a1.143 1.143 0 0 1-1.143-1.143z" stroke="" stroke-linecap="round" stroke-linejoin="round"></path>
    <path fill-rule="evenodd" clip-rule="evenodd" d="M9.691 3.06A3.43 3.43 0 0 0 7.43 6.287V7.43a3.43 3.43 0 0 0 2.258 3.222c-.752-.913-1.128-2.178-1.127-3.794.001-1.616.378-2.883 1.131-3.796zM4 20H2.857a1.143 1.143 0 0 1-1.143-1.143v-.832c0-2.48 1.955-4.377 4.397-5.334 0 0-3.254 2.738-2.111 7.309z" fill="" stroke="" stroke-linecap="round" stroke-linejoin="round"></path>
  </symbol>
  <symbol viewBox="0 0 24 24" fill="" xmlns="http://www.w3.org/2000/svg" id="book">
    <path fill-rule="evenodd" clip-rule="evenodd" d="M4.821 1.608c2.399-.48 5.553-.543 7.71 1.611a.749.749 0 0 1 .219.531v16.5a.75.75 0 0 1-1.281.531c-1.264-1.266-3.172-1.588-5.205-1.38-2.016.21-3.99.925-5.178 1.52A.75.75 0 0 1 0 20.25V3.75a.75.75 0 0 1 .414-.67l.336.67-.336-.67.003-.002.006-.003.02-.009c.108-.054.218-.106.33-.155a19.438 19.438 0 0 1 4.05-1.303H4.82zM1.5 4.23v14.862c1.269-.514 2.916-1.008 4.611-1.182 1.715-.177 3.58-.035 5.139.84V4.077c-1.595-1.394-3.947-1.434-6.135-.996-1.242.254-2.454.64-3.615 1.149z" fill=""></path>
    <path fill-rule="evenodd" clip-rule="evenodd" d="M19.179 1.608c-2.397-.48-5.553-.543-7.71 1.611a.749.749 0 0 0-.219.531v16.5a.75.75 0 0 0 1.281.531c1.264-1.266 3.172-1.588 5.205-1.38 2.016.21 3.99.925 5.178 1.52A.75.75 0 0 0 24 20.25V3.75a.75.75 0 0 0-.414-.67l-.336.67.336-.67-.003-.002-.006-.003-.02-.009-.07-.035a19.443 19.443 0 0 0-4.308-1.424v.001zM22.5 4.23v14.862c-1.269-.514-2.916-1.008-4.611-1.182-1.715-.177-3.58-.035-5.139.84V4.077c1.595-1.394 3.947-1.434 6.135-.996 1.242.254 2.454.64 3.615 1.149z" fill=""></path>
  </symbol>
  <symbol viewBox="0 0 24 24" fill="" xmlns="http://www.w3.org/2000/svg" id="cart">
    <path d="M21.63 16.45H7.673l.701-1.427 11.644-.02a.814.814 0 0 0 .802-.671l1.612-9.026a.814.814 0 0 0-.8-.958L6.82 4.298l-.126-.595a.833.833 0 0 0-.811-.656H2.262a.827.827 0 1 0 0 1.655h2.95l.554 2.63 1.361 6.592-1.753 2.862a.82.82 0 0 0-.07.862c.14.28.424.455.738.455h1.472a2.407 2.407 0 0 0 1.922 3.85 2.407 2.407 0 0 0 1.922-3.85h3.776a2.407 2.407 0 0 0 1.922 3.85 2.407 2.407 0 0 0 1.921-3.85h2.656c.454 0 .827-.37.827-.827a.83.83 0 0 0-.83-.825zM7.165 5.93l13.495.044-1.322 7.402-10.6.019L7.164 5.93zm2.27 14.36a.742.742 0 0 1-.74-.74c0-.409.333-.741.74-.741a.742.742 0 0 1 .525 1.264.74.74 0 0 1-.524.217zm7.62 0a.742.742 0 0 1-.74-.74c0-.409.333-.741.74-.741a.742.742 0 0 1 .524 1.264.74.74 0 0 1-.524.217z" fill=""></path>
  </symbol>
  <symbol viewBox="0 0 24 24" fill="" xmlns="http://www.w3.org/2000/svg" id="arrow">
    <path fill-rule="evenodd" clip-rule="evenodd" d="M12 22.5a10.5 10.5 0 1 0 0-21 10.5 10.5 0 0 0 0 21zm0 1.5a12 12 0 1 0 0-24 12 12 0 0 0 0 24z" fill=""></path>
    <path fill-rule="evenodd" clip-rule="evenodd" d="M12.531 17.031a.751.751 0 0 0 0-1.062L8.561 12l3.97-3.969A.752.752 0 0 0 12 6.749a.751.751 0 0 0-.531.22l-4.5 4.5a.75.75 0 0 0 0 1.062l4.5 4.5a.75.75 0 0 0 1.062 0z" fill=""></path>
    <path fill-rule="evenodd" clip-rule="evenodd" d="M17.25 12a.75.75 0 0 0-.75-.75H9a.75.75 0 1 0 0 1.5h7.5a.75.75 0 0 0 .75-.75z" fill=""></path>
  </symbol>
  <symbol viewBox="0 0 24 24" fill="" xmlns="http://www.w3.org/2000/svg" id="darkmode">
    <path d="M20.742 13.045a8.086 8.086 0 0 1-2.077.271c-2.135 0-4.14-.83-5.646-2.336a8.026 8.026 0 0 1-2.064-7.723A1 1 0 0 0 9.73 2.034a10.014 10.014 0 0 0-4.489 2.582c-3.898 3.898-3.898 10.243 0 14.143a9.936 9.936 0 0 0 7.072 2.93 9.93 9.93 0 0 0 7.07-2.929 10.007 10.007 0 0 0 2.583-4.491 1 1 0 0 0-1.224-1.224zm-2.772 4.301a7.947 7.947 0 0 1-5.656 2.343 7.954 7.954 0 0 1-5.658-2.344c-3.118-3.119-3.118-8.195 0-11.314a7.923 7.923 0 0 1 2.06-1.483 10.027 10.027 0 0 0 2.89 7.848 9.971 9.971 0 0 0 7.848 2.891 8.037 8.037 0 0 1-1.484 2.059z" fill=""></path>
  </symbol>
  <symbol viewBox="0 0 24 24" fill="" xmlns="http://www.w3.org/2000/svg" id="menu">
    <path d="M2 5.995C2 5.445 2.446 5 2.995 5H11.005C11.2689 5 11.522 5.10483 11.7086 5.29143C11.8952 5.47803 12 5.73111 12 5.995C12 6.25889 11.8952 6.51197 11.7086 6.69857C11.522 6.88517 11.2689 6.99 11.005 6.99H2.995C2.73111 6.99 2.47803 6.88517 2.29143 6.69857C2.10483 6.51197 2 6.25889 2 5.995V5.995Z" fill=""></path>
    <path d="M2 12C2 11.45 2.446 11.005 2.995 11.005H21.005C21.2689 11.005 21.522 11.1098 21.7086 11.2964C21.8952 11.483 22 11.7361 22 12C22 12.2639 21.8952 12.517 21.7086 12.7036C21.522 12.8902 21.2689 12.995 21.005 12.995H2.995C2.73111 12.995 2.47803 12.8902 2.29143 12.7036C2.10483 12.517 2 12.2639 2 12V12Z" fill=""></path>
    <path d="M2.995 17.01C2.73111 17.01 2.47803 17.1148 2.29143 17.3014C2.10483 17.488 2 17.7411 2 18.005C2 18.2689 2.10483 18.522 2.29143 18.7086C2.47803 18.8952 2.73111 19 2.995 19H15.005C15.2689 19 15.522 18.8952 15.7086 18.7086C15.8952 18.522 16 18.2689 16 18.005C16 17.7411 15.8952 17.488 15.7086 17.3014C15.522 17.1148 15.2689 17.01 15.005 17.01H2.995Z" fill=""></path>
  </symbol>
  <symbol viewBox="0 0 24 24" fill="" xmlns="http://www.w3.org/2000/svg" id="heart">
    <path d="M21.6328 6.64688C21.3187 5.91946 20.8657 5.26029 20.2992 4.70625C19.7323 4.15056 19.064 3.70896 18.3305 3.40547C17.5699 3.08952 16.7541 2.92779 15.9305 2.92969C14.775 2.92969 13.6477 3.24609 12.668 3.84375C12.4336 3.98672 12.2109 4.14375 12 4.31485C11.7891 4.14375 11.5664 3.98672 11.332 3.84375C10.3523 3.24609 9.225 2.92969 8.06953 2.92969C7.2375 2.92969 6.43125 3.08906 5.66953 3.40547C4.93359 3.71016 4.27031 4.14844 3.70078 4.70625C3.13359 5.25966 2.6805 5.91899 2.36719 6.64688C2.04141 7.40391 1.875 8.20781 1.875 9.03516C1.875 9.81563 2.03438 10.6289 2.35078 11.4563C2.61563 12.1477 2.99531 12.8648 3.48047 13.5891C4.24922 14.7352 5.30625 15.9305 6.61875 17.1422C8.79375 19.1508 10.9477 20.5383 11.0391 20.5945L11.5945 20.9508C11.8406 21.1078 12.157 21.1078 12.4031 20.9508L12.9586 20.5945C13.05 20.5359 15.2016 19.1508 17.3789 17.1422C18.6914 15.9305 19.7484 14.7352 20.5172 13.5891C21.0023 12.8648 21.3844 12.1477 21.6469 11.4563C21.9633 10.6289 22.1227 9.81563 22.1227 9.03516C22.125 8.20781 21.9586 7.40391 21.6328 6.64688V6.64688ZM12 19.0969C12 19.0969 3.65625 13.7508 3.65625 9.03516C3.65625 6.64688 5.63203 4.71094 8.06953 4.71094C9.78281 4.71094 11.2687 5.66719 12 7.06406C12.7313 5.66719 14.2172 4.71094 15.9305 4.71094C18.368 4.71094 20.3438 6.64688 20.3438 9.03516C20.3438 13.7508 12 19.0969 12 19.0969Z" fill=""></path>
  </symbol>
  <symbol viewBox="0 0 24 24" fill="" xmlns="http://www.w3.org/2000/svg" id="search">
    <path d="M10 18C11.775 17.9996 13.4988 17.4054 14.897 16.312L19.293 20.708L20.707 19.294L16.311 14.898C17.405 13.4997 17.9996 11.7754 18 10C18 5.589 14.411 2 10 2C5.589 2 2 5.589 2 10C2 14.411 5.589 18 10 18ZM10 4C13.309 4 16 6.691 16 10C16 13.309 13.309 16 10 16C6.691 16 4 13.309 4 10C4 6.691 6.691 4 10 4Z" fill=""></path>
  </symbol>
  <symbol viewBox="0 0 24 22" fill="" xmlns="http://www.w3.org/2000/svg" id="star">
    <path d="M12 0L14.6942 8.2918H23.4127L16.3593 13.4164L19.0534 21.7082L12 16.5836L4.94658 21.7082L7.64074 13.4164L0.587322 8.2918H9.30583L12 0Z" fill=""></path>
  </symbol>


</svg>